<mxfile host="65bd71144e">
    <diagram id="HIP3nbAZw_EuaXWnEj3U" name="Page-1">
        <mxGraphModel dx="1086" dy="662" grid="1" gridSize="10" guides="1" tooltips="1" connect="1" arrows="1" fold="1" page="1" pageScale="1" pageWidth="850" pageHeight="1100" math="0" shadow="0">
            <root>
                <mxCell id="0"/>
                <mxCell id="1" parent="0"/>
                <mxCell id="7" value="http://ics2o.mths.ca" style="swimlane;whiteSpace=wrap;html=1;" parent="1" vertex="1">
                    <mxGeometry x="40" y="40" width="760" height="480" as="geometry"/>
                </mxCell>
                <mxCell id="9" value="Enter age" style="text;html=1;align=center;verticalAlign=middle;resizable=0;points=[];autosize=1;strokeColor=none;fillColor=none;" vertex="1" parent="7">
                    <mxGeometry x="10" y="88" width="80" height="30" as="geometry"/>
                </mxCell>
                <mxCell id="10" value="" style="edgeStyle=none;orthogonalLoop=1;jettySize=auto;html=1;" edge="1" parent="7">
                    <mxGeometry width="100" relative="1" as="geometry">
                        <mxPoint x="10" y="140" as="sourcePoint"/>
                        <mxPoint x="200" y="140" as="targetPoint"/>
                        <Array as="points"/>
                    </mxGeometry>
                </mxCell>
                <mxCell id="11" value="Select day of the week" style="text;html=1;align=center;verticalAlign=middle;resizable=0;points=[];autosize=1;strokeColor=none;fillColor=none;" vertex="1" parent="7">
                    <mxGeometry x="5" y="170" width="150" height="30" as="geometry"/>
                </mxCell>
                <mxCell id="12" value="" style="edgeStyle=none;orthogonalLoop=1;jettySize=auto;html=1;" edge="1" parent="7">
                    <mxGeometry width="100" relative="1" as="geometry">
                        <mxPoint x="20" y="220" as="sourcePoint"/>
                        <mxPoint x="210" y="220" as="targetPoint"/>
                        <Array as="points"/>
                    </mxGeometry>
                </mxCell>
                <mxCell id="13" value="- Sunday&amp;nbsp;&lt;div&gt;&lt;br&gt;&lt;/div&gt;&lt;div&gt;- Monday&lt;/div&gt;&lt;div&gt;&lt;br&gt;&lt;/div&gt;&lt;div&gt;-Tuesday&lt;/div&gt;&lt;div&gt;&lt;br&gt;&lt;/div&gt;&lt;div&gt;-Wednesday&lt;/div&gt;&lt;div&gt;&lt;br&gt;&lt;/div&gt;&lt;div&gt;-Thursday&lt;/div&gt;&lt;div&gt;&lt;br&gt;&lt;/div&gt;&lt;div&gt;-Friday&lt;/div&gt;&lt;div&gt;&lt;br&gt;&lt;/div&gt;&lt;div&gt;- Saturday&lt;/div&gt;" style="text;html=1;align=center;verticalAlign=middle;resizable=0;points=[];autosize=1;strokeColor=none;fillColor=none;" vertex="1" parent="7">
                    <mxGeometry x="10" y="230" width="90" height="200" as="geometry"/>
                </mxCell>
                <mxCell id="14" value="" style="shape=image;verticalLabelPosition=bottom;labelBackgroundColor=default;verticalAlign=top;aspect=fixed;imageAspect=0;image=data:image/png,iVBORw0KGgoAAAANSUhEUgAAAyAAAAKACAMAAABTxewAAAAABGdBTUEAALGPC/xhBQAAAAFzUkdCAK7OHOkAAAAJcEhZcwAACxMAAAsTAQCanBgAAAJVUExURUxpcUdgeeTk5Obp66evt1VzkLe3t+Hl6cvR177GzdfX109tieXl5U5sh8bHx9HT1cPDw8TExUpngsbGxvb29k1qhff39/b29vLz852qtvLy8tXW1+Xl5Ovr6+fn6NPS0ipEXEdheqiwuOXl5b/CxNTW1sKKcOTk5ODg4O7t7fb29vPz8m6FnKevt+3t7L7Bw0ZgeeTj4+Lj4zBFWejo6P////r6+urq6fT09Ovr622Em9PV1bi4uKqyupSdpuzs7IeUo6arrXN4fcGIb+fn5/j4+Le6vd7e3p6eoZ6osf38+0lje+Hh4szP0bm8vqGqs6y0u8HExpyjo/Hx8YiWpe/t7O/v7t/f33+OnqWutuTk5cPHyUFbdUpkfpqkrv/+/aSstS5DV9fY2Le3t7q+wO3s6pubntna2rS1tnOKoPHw8DRIXNzc3YORnyA4To2aqbrAxpadnio/VLW4upCYozdTb7zAwrC3vWNobniHmdLU1ENed7Gysj5Ycfr39Z+fokdie8bHx8rMzceNcrO7w3V6f05ogVVthKitr8XKz7/FyixKZ9COb2lvdtHU2LWBaNDR0uvz/6GnqOurjLq6ujFPa112jpJlUsrGwuy2nr+9vatpS5OTl2Z9kzlQZRAoQNTX2piYmxgwR5+kptHMyObt86SoqsjJyk9fbzVaesGBZJpsWPT7/6yxs7nCyv/jzHiPpuLJvRMsQ25+jM6sm32Ch55TL2KDoaV+b96gg8LCwvivjI99eoiMj//w2cyahLiOfn5ycklfddjf6cyTebWZkOjd1RF7uTQAAAAhdFJOUwD672H6BPsDG1T6LzNPfIrhxbSnfna8o2+DktrNtqm+3jB2JDQAACAASURBVHja7J3vi9p4HscHB5xpkP6gZXeYa3twGYnulJHNxM2kI2QHbPVy0UWWVahwsolrrJXh2IIPJDcSOa5z9Iks3j4Qu4st1EeFpX3mw/vL7vtNzE81md5tW3U+r45TsXRAyWs+32/en3yysQEsB1voceWPhPSHaxH4MABg1o/dEv+lojRZMnQFPg8AcPuxFSoqBCEpCiGJ+7vwiQCAq35kGKItKRJ+ENIDMAQAnNzmiGNGqAhFCRURSTra1DclAADgArK5L7W5ZEWoJI+iClpmxTLwqQCAXUBIQqpUBEQyFlUkhWChhACAVUJiSjSTFHRB0se4hDB3QBAAmK6wIjTaekwriKivscQQfC4AYG5B0oTS/kHfg3yB/ZCIkgSfCwCYgpCEIkVZoVJpoFKCz/SWYJcOANYSqyTpGUhTz0FwBaFgiQUAFrEMDtGlKP6m4D0ItwubdAAwS8hdnlAMsB+SJLEREAQATEG2RYkwaoeuCMHehk8FAGxDdh5IxvIK/0VkYttQQADAwefIkCmESMECCwDc3KIzRv1oxkJwzRQAeLne7SnNZlPq9q5C/QAAL0Rdraf6cv1EuwWCAICXkHauYk5EEAQAZoiLYexHXdsHQQBgBpZUcmO0D5HiIAgAzC6xREXMNGMZggdBAMDD1gbLEhO53u8SsMQCAK8eqIJ0VVWW62q4tLMBhgCAS4/tGwNVTmHq9cFV/CI4AgBTPSI3JhpyQzYeg/Hg2hYoAgCmHmNNDqemyKlwuD8e3NzegJUWAHpsXLk+nshhOWVXEKxIChQBQA+sR1fXQzbLh/FIode0yQ1QBLjceoS1SdiuHqraV1WzihiKREAR4LLqcbWvDcJG9TD0uB5ipYFbEQ0UAS6pHoMx0iNlV49CiONIllUmpiL6Qmsyvn4FFAEukx1OPYzqIauqFuJYCsNyTaSIbFeRiQaKAJdKj61rg3Ef6WGetVLD4xCP9CBJisSK8G5FwgMtfBUUAS6JHts3vXp0vzT1QH4YipQ0U5GUrsh4AIoAl2HrgfVI2XsPrAep64ENwRiKMJw4rpuK4GDEVAQcAdZbD22aCuqGqOFemk879HAqQndla6FlxOvQgQKssx645cqhR13tE8yMHoYi+DWGJ3OyWrerCHSgAGuth+bWY0CwHDlHD7uMkDzZS2FFjM0IdKAAa6uH2XJlpYIDglush0ORdLtvKgLxOrC2enTdekyUAD0cirDRAXSgAGuth6flatJkOSpID1sR1tGBAvE6sGZ6mC1Xlh5aBp/XvYAe9iktlrM7UIx4vQuKAGuhx0xPSYm7uB5ORTzxOnSgAKttxzw96mN6oR6GCIv/heUzjngdZ4daH+J1YHX1MFuuLD1wTwlDGQ0l8yVg0qKPIgwfs+J12dmBAo4Aq6fHzRk9qLmpoC0A12jSDUY0Ksl8RThxLHs6UCBeB1Zv6+FsudJTwVSODNCDLzbrw1qCbLA0RT1aqAhPdc143exAuQmKACuoh3Xiqq722wxP+usRV9TRsFYb1vJiw3ebkubJHMTrwArrYbdcTfU49tdDJOMH0fPhMNvJZju14ShVanB+irg6UPBmBBQBVkaPiFsP1bflaqoH3zsZjrJTsCJ1pcj7K5I+HthVBOJ1YGX00Dx6KCwbpEf3taFHbZQd1QxFhqoU5ynaTxFvvA4DHoBl18MzBA73lCxOBXU9mCI7fmXq8epp4s1UkexweH4cj5M+Z33xgAd3kxZ0oADLrYezI1H21YOa6pHWOkiPDtbjp6flcqG8pxqKZLOj4evega8irg6UFHSgAMuth7MjUfZtudJfpdkGOakNax0sw+j1w3I5gdgrF+odW5EuWwxQZKYDBQY8AMunh7sjEesR89eDYhti3tCjhvTIlwvYDvTHo8grjSkyvoo4BjzIMOABWEo9jJYra05JfSxyjK8eXKOUGk31qJ1Up3qYX+Xy01eWIp1JusjQvvF6DAY8AMtpx7yORLlLH/jrgUNzS4/zlqUHxlTk4U+j0fSsby1B6/E6uVgRGPAALKceno5E9Js8R+kdiYtOXNEUH5dUU4/sm4RLD0uRRKGcfz0yz/r6xOtWB0pupgMFskPgE+uxbXckGqF5quffciWS8fjxNDRHeqh75T23HW5FTmqmIqNUxj87TLvjdehAAT751sPRkWjqEdhTwvesVLCjFubq4VSk5VBEDYzXmdkBD6AI8On00ByDGHBHYjpAjyJrh+av6ov1cClybikyfCPF4wHxetQTr0MHCvBJ9JhtuZICqgdTZPRU8EJ6GIokdEXseH00PG8HxuueW4xMtOugCPDR9fC2XEkLW670VRHNFNMTOzR/WJ7VIzHvmXFKa091ZIe5g8AOlAl0oACfUg/vELiJwgWF5nTCGZp7T1z5lZG93yNeB0WAj6XH7BC4Jnfx0Lx2kvfqoT9JtKr5PPrCj2or4Sgkif8pXs944nUY8AB8JD2Mliu7IzGg5Yrii5m5oblDj1Y+3yp0e5LSbDYVqdct4BdmFLHi9Q6O10n/eJ3lxbF7Bgp0oAAfXA/3fTf1KVeBeijqotDcUADJUMg1KRbBYPATqpkr6I44FUngeL3mitd9s0PnLUZMRSBeBz6gHu/ZckVT8bj0Zrg4NNf1aHUzDMukScoBiV7JdFszirjj9X5QvM7ZAx6s+yeAIsDH0UMe07564NC8fW6euJoXmqOn+VaPZpmpHPgebMZtCg1H6F4rb5/TMhWpOrJDuRkYr08HPEyrCHSgAL+/HbP33URLl67ZcrVQDy7nG5qjp9V8jmbTUyE8p4YRaZbuoiKSSCzODi8Qr3sHPGigCPCB9LA6EoOmXLlD8868VBCXj0KGW/xT9ArANvccRWR+vB4txikRBjyszwGHWaW11ZyWK/J9QvOnc1JB3Y9umgm8gw6b7uZnosOZeJ33zw55b7y+YgMe9OPlcuyctuY8WwU9LtZyZYbm5CQ7HBmp4NzQHB/xrXyUI417P0//s7lNd76Evtg2XmbNZoeueL3HXXzAA96MrFK8vlrHzP9NZGf3893NrRV4t84hcLYeUXaxHkYqSA/sS2kXhObIj6pi3/z5EfZCFGOiSOPvtLUnMYqIUnUbMjc7DI7XV/cWI5Hdz0Khz3a2110R9O42Q8wBz/Fs7M72CugRcesR0HJl6BHrjxaH5g4/mqxZK/RVGdq1nFUE4UwQKmffpUWrZXe+IfMU6QTG644OlJTRgdJfBUUioQMOvQfmIHZ3vQ1B7+3Okdjr9doEofCxzeXXQ9M8LVcBergupZ0NzT1+GMsrY0+/L+xHv/n63bO/PHv39TcKc1a0tt2GIa59yKJ4PRscr5c0lyIDbfnj9VtxsUe0ewRBSPHS9nrXkNvxNsF++0PzWJEIZX9zqfUwhsClLjQEzpw/LfmF5k7yEvLj0dQPkTo7+9e7X07fvn15enr69te/v7j/11zjCGljG3KcX3TFSLn88LV99fogKF533WJkFQY83HoQJQ7OvvpOiqKDhoqttSF3G21FSFaSldKxohASE1nON/v+Q+BQDaCM+dOLrzR3FpB8jrNjQbEh/OM/L9+efv/k+ZMnT74/fPHbvRc///zb34SiSFrRIdvN7yUWXlTliNdH/VhQvL5CAx62NiLfRo/PkpVK8kyS0EHDhNZ4gRU5kNpHSX2VHcVvlgwtrx7vNwQOX0rrH5q7/KiWWVL3Q/+JgvLPt6eHz58cYn5Efty/d//x4+e/PhMF2yKSKVT3fC7NvVi8PnuLEasDZVmzwxDdo5KCIHyVZNoKOmiOdta3hNxmCUVAG1FBSDZRvVSk4vKVkLlD4MYxPqCnhAtIBV20qjHGPPLptPDn05eHuh3PD5+f/nLvMfbj3r9/PHx5+qeztGUIk6le+NLc0X/JO9/fJLY0jrPtWuxY7+69cdX16k3mAgEWAuyU7lypqzHhWreMjeRamrWg2yl1CmLdYOqNpaA0N5Rd3jSNJaYBTTWRV94YfUdy3+xftnPOmRkGmGFm6FDG6emPKLbCtOczzznP9znfBzpfqzV4MHCLEatlPExvzANAZu//BAEhTBxCXAxN3xcBgl0+Z7DfiHTfzd4ViVQ4RjZ21ePBLrB2SIEPcvbZm2wF4rG0tLSWTwE+PtbZSMLS8vaeRyDJefmW1CJLWjus1TYdPoXT68Gdl53yuuEQsVrOkdgGCQGZmmcBoWmaMukuhF1hETSz4QEXO1VwsDcD2mB3AzkTODk87rb5T/cQzTsDiD2M8kwgLsxW36DgsZRdmpyMfPSGQqFUNbvG/mXtdaj62INiCPzkf9rz2KEIEZD1va4srzuMX4Ey4sQcDLir3udWHVh41KyAjIYx9gr/NjU1NYuulaYWjIWHFhM42EaQIGN3FUXzrgBCk9wGxGmb/fzm4eRSZTKbreRzuSrgw5uqxuP5ytLaeirlrd7zCDCRG3IhRPb0+mX1Bg/IHL5hNERGKIyZds1OTd3/6zQ7Z1hAyPMmBoRmHHR4PggydmA9Sc0YCQ/eBE4QzUFFooIqSO13+08rnDRHAQQum6jZqzB+ZLN7uQQeqKdCgI/tOB5JJPI4WG15qz8XCF4u6RFCZLTD3QYZC2szeDCYvD5CwElDUTTkgwUkaNoIMkHRIG5Mb0zT8FqNs+ESVyQuq6hI5PHoeZRWNoBscAHERv3l1lt2r7GUreQSkXggBLYfkA8cD8RBNAFvVUeM4BZZ5E6vECInr4fTQUKbvG4cRKyWs3DZQTscYMUBAKFtE2ZNY4FNOiID3QsYjDTEJl1sAicU7O5Ph6/Z+vWf7jmJk0QYBRBnuJBfYxdY2fVEAo8nQih9VeL4YKMJJKSeSnMBxxl0Jf3qPFAWn+yK5HWngrxOzjQ75HWjGDxYLWd8GJou3CeacZk1y2uFaV50G2AQJrHx4f8WWiVXItF836FUU+JmNvvBw25PNkhuU0HN/gNsQJbiCRyPl2D6KhV6EccDeA6utlAESVV/8VDcliW4mFRnE9QhrycVjuaS1yhjthixWk5SNH9X5W6ql0yb5QVCoXCp4FqdIxZj4FHUVJEobtosiOZgVtrVDLBF5wJCurL2cGkplwgE4tspmL6q53IsH/FICPHhBR917wofciQLTnSS16nuChRDyOuXfJgACFhmkRMmrjX5LobR/PqKwejLw75WGRM4Ukk055s2Pzh4/sGunLiSXGHZqML3nyocH1XERzUewEE0gWIh4AMiUv2vhxLWWOqeREJeX1WS18UGD0aqQHERGFxaoRzWjxdMXa14kY0h/MgMu1ixHxM4Fg9Si2jencOKBrktBTFbevswm08EcjkufcXxAaKJiA9v/Y6H4PJYYftTuyZE1Mnr6NGgEQ0e2HWHy4YJk+bHSyamA5a7kxkGXikzQ40aAI+mJhO49qbNfeDhtye3uBUW4aPWwP6c23CI0ldiPsAfQnWCX5WRjaTdrw0Rf1nUWBrI65RKgwewXzdEBcrJESoDV1iZGeaMxWJyQorTdCazMJPB6D8M88cO8RhTbQLn7BbNd9WI5hJbkGmSX2Hd/jT5MII2HF3pKzEfqep/PNRdBMjOnIbn4rVDsby+oySvi1qMGENet1rGt4oOJpNhdopj5j91+8fN1ZfNZvNluXlmeNcqrilpmcC55GpKhKbNLf/pXdS0WSseLCCZIDoo6Jp99mkynuA2HKlQBKavcnV+ey7w4f2YfXTfhb6JpOc0PZuUvL6lKK93thgZrsGD1TJafL+5ury8yt7CLKYfWHMTjveZoQEiWXIlbwLXq2mzVjzs9qSLS0kRhdLb1wkhfRWA6Ss81MVHyrv9tjrL79Izcxqfj0dEfHq9QfY8mivRYmSYBg8sIK7yJkvHZrnJmB+QkQwCpPnTcACBJVdfqTeB6920WfOASSz0/xbya/GckL6CfMBoIuLDC0NLZC9fINA3hVWmsSTl9XdieZ3TDu8a3+CBBcRXhHNm33UMAMFsWLHZLG4w7mEAotUE7nCiudRsfcobNYTTr9cC7ekrJBaK+EChJZHPFzgDhzCV7IfKTnmdDYVNG2wsLS+vG6YChQWEZOitrVt0xkUfA0AoeoYdDOY7ekD6KbnqbNp8KDzAXOUBIcnsZIhPXwXA9rwtvcvzkcvhkfz/PDxVRLI/LiXk9TlFeX2hU14fSgUKC0gQg30hsBkTA2LlDBVHKJTUhoAcqcei2ATuiioTuK6mzR/8/SSuZAAJvuYO15bk0rsotAQi+W0hgvQJiLS8fmXB2AYP/JxhAUFzZsb1pRlz9rEHIeDFMljs/NFHj/a+m4omcOAorahps1bRvPceJEymvHCPkRCnr9r5AKElgEfWq8IehEoegs1+5HWiIRg8LA9LXh8nMVRp4jLxcdsJbowsoMIaLHjhJHrkqPDQagKnwn9a+yS131gIcqJfOlVn+ajjbdWJHXywkYWNIHvPCn1nsVTJ64SM9jNkg4fRC2fAOP+diy/Gcp2Hj1wYNRselgnSRcHRKlbMEPAB2+CPGEu3pe1tAtfuP60PHuwUjT5x8Ep6+k7dy1cnwlr3zvRuCfKB44nKVQQIOlRo1wER8en18nTvrrmtFiPLCJEjktfZ5fhU0MeOmK1V4noNPBCcOmsyvdBqOZnB0DqSaVX3w2UlxgwakJYJnKq2tC3/6cOK5tKANNwEfB7K80v1o1z6ilcOwb/ikb1fPRR6ab7ijehhGe1LXu8yeBg8IlbLWReGBn9AAswXduwQ50wHyMQCV20mnAVhuL9nBguIRhM4wX+6rWnzol8XPCAgczFUeUisMPVtierEVnoXhg925PLECrcs872cix6eUk4YaZPXSQVERC1Glo+mAgWdJpQaBjlopzsgfOAQX+uAAZFsSytvAif4T+simksCMlf2ofNSTqenvhfpTl+10rscH5H1eoHjw0Ze99v14FTCHF6zvD7oCpRjCAjdxcdgAZFsSytvAqeqafMhZ6bdftMZ5KsV/1mJSFYnculdxEcgUrld4FZY5MLzqE6kSsjr0TCHiFPZ4AG1GBmovH5sI0gbIgMERKMJnFTTZp3xAPNy8WDHx9euh3PxQE46fSXwwa7AcJJLfBHurZuLurEqIa/7kbxuUyuvLw9SXj+OgMD3I1liaTWB45o2xxwf1PlP9w/I89U0xZ1JL1ytSKSv+PSuEEDuFfgz6enN3YaetPYhr4sMHpC8XhwbkLx+LCNIy9NkoIBoN4HratqshyooCUj5AWkTQkgp1J6+akvvIj7yiRVeOQmGD1YX/bq+HAl5fSa2orYC5cogDR6OGyCtY5PtQ39A+jGBU27arNOUXLzx246b88Uifvi16g15u9O7rfUVjlf+zQUQG+Xe+u1pVN/XJCmvM0ry+pEYPEBAJKeMKQEhQLmZxGD07oiitS2tIJq/01sVlJyPUXut7HbyWSnP42pKNr2LFliPCvxXO93vD6J2v+4vqbuxdC95/chajLCAXJaeNLTbhIA4tm7d2pJ6o3W1NunHBK6jafPg8EBrrHc15hpvSE0GvXVvSDq9C/hI7FXTQf6Lrzlq7xcHQq2UvO6WEUY6DB5EiOiuHV5kGltSo5G5ZD4l/enqsuQYK35lsZ7QZ8iUXMmawHU1bdZTNJcFZLO2meaCgo2Yp0J1GEO60rtgnRXZ2ybnKd6a11euPVkcFLfc0dybosbSPgXtUK7FyAm9fp3fNsek54z/W1PhYWGv9eRO85XkaDp0LTzTYAIn3bR50T9APOAaK/mgNu3m8lI2IubyVr3IQ7Gbj8p2ME3YUM6LcO/Ubg6SXCl5PaYgr7cMHsTyum4RZEN6zrzauAjmlInwsFhO/Vz+IDnKN/584pReY1y9CVx302adRXO5eeiP7tbekWGnQEj4ThV5KLand/FIvPIsNs/z4QwGn9euL/oHyW63vK7QWBq1GOmQ18dP6zROfV3+vfQofw0nljnwAJ9Of5Nblx25hA6j9CIf/1xuqDWBE47SLg9MNJfPY60e1Pb5wMASspK+XWcRaU/vRiK5SvzvBbL1ZekrtQdz0YG+Oh6RJyJ5vRnu6Xzd3WKk2PhXPRdPlA4/EnnZOZN/8c0p/t775QePP7E/LbzHCOCHG+zNNrce//zhVZuNjzIe6ps26zsJo8/BIqs19W0/ZB5X6/VEIBLh4Ejg+cr6I6Jw1yl8UWyndrA7yADSJq/fEMvrhJK83l6BMrb/qvw5vx743aEHHmF/FuCj6x1/USptn/7SwwgXPBKlCHutPSd4oO/B4/Fs8//sne9v2kgax8tKTdPT3vW0p31R9cUJmcgQJEIRrcMVlc3KAS5xIrm5QlWSXSmmxIqoVhVLdGkgLHlBc1ptFUW0ihCVFuUEuhd5Ve0bpP5vNzM22CY2OD/Gv+KvkjbB+THE8+E7M88zz5y0OD6urwicdGhzGl/QXDMbC1pIocDEhoSQkVfB9z80fv1Qrq7v7e2tV8sfPjR+Ku6/YiQ+EtlOoQNT3Q0AGC1pXSi8LstAAQbOc62Tyuf18t7y1V77xn1z2OMF/crONiKYxzfLjUbYE766S4xxD3AndnmAB8fJUq7GFoEb1p/Wc2gzHgvpHFMUOYioExHy+XzsPz98erdXrVbD7/7xz5Xn+88jEek6RYOJQRe7gSjD6wuK8HpifHg9JS/wwAFE+F3wurWM6cbDHuXxQBv51p42IppHo/ELMg+seIRfxCEecM+0riJwI4c2V1gj8UAWwiY7YMIdoyQCyEgkur2/HySyxSwd3N/fppkIQUp8UN1OurBjgIFohtcrk8Lr8gIP8Ga0TrgXYXyIoHGHJ2xLGxmaxwZ4BrjYEDNdy8uvmydNfogHKgIXG1METnloM96ooPYg6xASQomjLHH7NwOYiL569SpKMIy0cgT+jSTobrvWqeQM4kMjvH62GQiMD68z8gIPHA9uzOvl8jq2F0ib2ghq57fvkHlgpAP+6Gp547uWEg/tInAvhajgNm1U0HwMIHCQVWt3iYCsv6FOBpwEVXMjSFmScYA5BXygAZZxDVUNr7/VDq8TIwUeRERaPzfKVaxjCHvNRkTz2GhseD1hjO4h4NH4eYjHpJSrwaHNpCxonsyZgIc4yMoXCmBWsbkmRkPUBS8w9PYTMBAspAWyDG2nSnh9RX+BhyEi7wAiy1gRsYuNwNbdHpoHPj7A1APg8e7pCB7aReDUDm1OGrZwpTrIKnUAIe1+IqEeZBDxIMlEIg+ILhTyrNF8XDa8LmWgDBB5ihcRtKhl/dkIaheaeXg9Yax/DBGP/klcjkfrCTUBD/lW2lXz8BD6HVzrBSP77pZGkEFsdGbmuA1mAJ1kziSWLxNelwo8IETi/f4pQCSMFRGvxW1EMA/PBuaZB8IjDPA47fdleExOuVLUnzYqaD7OQhAh8JRm3r+dIBlSXkda+IQhQKMrcEBYKJjFh0p4vQbD64Tu8LqIyEn3Y7mMGRHrzkZE8xBmHl7ceJTLH7snI3hsTcDj0oc24ySkhHoc3KAUyFDEABIBDpKIZUIzoNFwulRYzZnZ3EuE12GBBwUiXP9k4XP1yrFDO9rIbdE8BjMPvHyEy9VPCyd9jtdZBE44tPmJKUHziYSspjvCCmq3n4plAjGKRsu6NJUAxBT73XYbdshObQfuszWzvfLwurjqW2hODK8rjhiB4fUzGF73Yn4JtZiNiBHBZfzmgfhYr34+hDkluovAKQ9tNjhoPp4Q3xzr68L+VgMD+84x15vxE1QsFKMI/0ydP+0MGn3Isua3WAqvS7FDbkLl65EMFBg7rOxW17G/hlrHRm4PZx5eD348YI3n9VNlTsmklCtl/ekKaxU8xC7ny/GDKEOn3Ya5L6fd4+HHQqOTOZ81iL5EeH3kiBGIyMIebg+xTGxEMo8w7qHVIAe8vPtfXo5HjxlXBA5upe0ZsdP8Cj0u5xNj1emasPzcQYMY+IlgeSxrKaTPhddnMhPC68oMFP7ku/KyAS+lAxu5bZaNSDMPYWhlBB9eb/mwxesoAqdyaPNpKWctPKTJL4pVC2uocgFYamhEaO70Y0J4vdM+fJsYH15XFHjgWvy6IX3FXBsZJrJvGDG0klQ9awlJJagIXEILD9VDm62GhyLK0AWNlEFSAHSkF0qsBRutuns9NqHAA7kCM1CQiTR5MMYyhhCzbES2C8qgoZXkIGctlOkzpgic2qHNSUssXI1dQp0rnR3XhBEWYKPWPUuy1mRaPXaoK7yOxliGAWLWotaIeRjKhwhIvNKnYoTu+tOr1sVDGrYARkAz88lkKZnMg0FMjvVZt9EqiNQmhdcpqofWfA0GZBAbaRhjI9IuKJiLaDAdMkAOQmPuRSKzZaGgua7+JsjnYwXJH7Iw1bDytRReT8PwOvmSIAn14mOhI5MAEW1kA7+NyLfQGm4eCkB6MdX8PngjqMBmpW2loLn+wKFCPos3WRZeH27NbUVCBEmoJ15GEitmARI2ZFFLYR5mwDEKiNptIMhQEW2lrUlBc5+rawlrascOZZWvDwJayfsmAmKEjYzsgjKJj0mAAP/Ittu1NAomnM2xczuC5jTldv2rKwdjhwXwolQ7TbcPQhqbW8wGZLiohWE2Im2h9ZpJhw4HIWOnnVq71q2hoPmOQnm5Vgf/y5W0rUqm/vLS6k7ptI30pU3SFnUQbItacvPwmoqHniHW1uLS6pfNR4uPZ+eHCgpaC67BN4W2ZcpoKZSQKSYXJVNULlohQksvNRTREKMhv4ayGkppqKihrUkqZjd79Xq91zykCQsDEh4sanmuy0YUW2jNhUPPECtCLc0uLfYPMrOTtHg9eoxNS+ek9ph19OMjpEXCokMsLDZi2C6o6wMEGMfs49m1+UsoqKZ5ExS0sWZpGwAizEY2rmgjyi201tDESToZXByxh1lX+ARoHn3IBg4iLvxezUaU5mETQGCJwiiaHMgmDWAGEQqBt1EF9GhbS2u6FLS3Jpvd7OgDsBie9QGRJfxeykaUu6Csf5jyFAAAIABJREFUQoceByFIzYnsOEUuKsbSIq9HF/6rwJOqbeEgV0r4lSeyWwuPyYBo3Z2bJdJEad4BCwIihdgvYCMjW2gthYcOQDT7jIuNQXASNgLk3KLWJEYUu6BwVn4zHBBXZsuygOi3keudeWCBq+oC4gKCKSke2YjGmTx3oJB5NBqNZc+yZQV3FLqA2B0QrzU7l8ezPMjUuiNKoGOAyZ+/Wf9lvYpUtqh+PXQdxO6AVMofyhbW/8qCjSgMZBro/qdPH0V9/vRZRbvofVdNLy6g11fRC77pOojNAeFeW1z/+unpPUF3ER73WhzXavV7J3YQ4sMFxI7LWwIggJC+9btZD6ne+yvg4+/9Fjq+d2qK48Ebx3G8hSUW4+3FIqQrW4mhVsRSvbz1NSVq5S+37h5xHCpVeCWJJwAbIw4AEiBoV7YSIexJt4EGhyxy8anm1K379SmhBjQXj9um/ZWDhAuI3QBJQEBs08tQT+MAIHchIAgZO7W7Czd4urKV0sdNzlZ8xONTvb/dutWqK/HQOagycRrSbFU6BVe2U+esFeftpdb0rVvTTb5SqfcrQ/HwXeiKYyYdetTEoRZXWVCpZOvK+ip0K61W0y4CLT36GoUJ/1TM+reKqVTKn82iDc4j+d+k4ngwVUXVRNPU9YsOxttpvQMst08aI513o1Yo0AnKNopGg9MoEPLVPB0Viw6MnWVZYzk9U/nSaetVx5UBausXQ9sofvUw8bUASMJOQQVq8+BIr1b4kivc4pNH+m+IuZtVLrphLCQCEojYKSJLhXQqkaFYNucKs3y5jN47EorZaWMO+dCGgMAta7q3xRJMfs4Vbu34CP2bckkbEWJLQC70BOlI3q0til07bNSZGzZdQFy5gLiAuHIBcQHRAmTH7b/4T0ZwPiAhsZBShHBWhjXNmFv2/GaolHdSt4kACsSox0MmJgISJAfBb2e9BNBM0eIV3pyhKOUkSakgxJoACCPRQ1BUzEEiFn9ccoW7rPvjrZSDVPTTUtxcAGT6zrCIw73Ss2Pn6PRwft7u5XFtUM890O68cYw6x/eHNU3uTJ+r/3PvrO2c5/qsffxo0RVmzS7NvnnmIJ3d164cBxyEd9KTfXP8VSDmCq+oTNRpgNy5KYA8e/bgYdEVZvm3bhIgThpigUHWAzrld4VVWbLopC7zZmE8IOzhmZP0gHABwQ0Ik0qu5h2j5Mq9sYD87qT88N6O6yBGADLHOkdzv48H5CjvpDzspAuIAYAUnbSpIP92PCDvHfRkfeyqdQHJZv3ovPJiMZXKok/s6yBOSgndeT8JEAel0V0KENBTU8plmpTYe89fKYKODS/4s+fWdtAV5YWUREEWXcmSRJSKRgkGfjxkRO2njf25sisjF7SaN/hd56+kLkyqC8gNAwQoGpPn5sRov3/QnQhF1k4syoh9mjyX0UMK30LIv1ruHkUmsU35N98erLzdioS2A0RWApEZkylEiF8ymv8ktkX5vYPmMecbN7gy8lyJ7A13kLwLyEQHIepsXSb2gBg4CHGkuFKvR1BHSxEzPuXj9f7mw9TIBbZHSk7EZGhf4Y/vf/s30G/f/5FOblIZetBp/SO/Raa5GTIFv4QZvcDW/8/euby2rawB/NDCOeVSzurSlHJ3ipFkg4KFUln0gomQoxKUghusgbM5EOIqiNmEQBhCoNQgyGYgnOXFmxBIsslSm4L/tzsPaR55nNa6qytnCn1oZuRR+v30PWfcpwRrc9dBBQ3Ql7e+z58IgKSv32V913jWIKsDyPqnf5gNAPFDpLUwSqjUEE8hKPQenDAJhPbdrd6Bbs8cSDrSLdlxW04rsbRiLzgsKBm8YcIJLs+ziFtExj56st0eTyETeXy/J4yYilPn3l6w90McXejLuz3KIV9J1Ll3+7kNnwFZHUAOsmR5kwEMS1wUYd2KAp96MQPEyHAoO+hfXQ5IeoZKpYPMQcc2A+Su7iC3KR3OmRUHcIHYZxSiUWXyLYJMH2Xq52utQDOfAZKEoTakCAufAKLOJYs4rQD5gNQbkpX4HHk42UZqR4Ev02dAVkmDNALEL8W7nQvlGZMaAJ1PqjgRkS4qQIJtpE0hKuiACjKcHosOjBYBk0or9jthdSOuB2p5nnmQp6axfjdOEL9xJ+ImVqEPwaiMqGtjwlB+IN43KpV074a4E3FA0rn+RLdfhisOyMGKaRB3+egp6LsHC6y+cOcp0yAwP1LFCZeHoHLFrahzFcopOPz8IeLRpuj0M+/Ai++GWznuVoiLipm7jfHxUTUVZyzvTzQVPCuxKvzcU2GNfyQw3W1tyOLA5R2Gdcg7cHEHo9p3yu7U0US/TVgkKzEKFRw8H5tL/8CeNciKAUIExw2626r0ha5LHBCQRIo4Ffh8YJsibBvlhhBBXEa5B+qOPZfOwuNBkLAwLIjTS84Zxt/z3Jmmucd4xGFSR50Me3AlWMTHN+vj9dmcQoWLKOFhXtcZnMshGz3HrcK8Jptb4CMaGauXZ9h7l7iQgMypTgTQ30UqHxfVGp8BeQbk7zN4mXOg6gp040Mi2N4p0gyvPKvyCSydkJaVBBZ4kcNY5Cti1oFOvWp07F2g+j3eZXmVrHdNPw2XgQXqBezdiQWg/YEfeO+pt0C8B7vyY0CWSoMPnfr87mJuga57Ynn0Yn4pn4gQa1DkqYukPmYnysBzHuQZkB8jAtNzRXKIsOWQXjzTLn5OoZL4A0GtQYgUT0Gd9CN/+gyQXeLoM2mFuVAOlklTH5VvQ7iaiFnqAtCukcEs2mVjuLXHhjjHyhAPyrn5FgXkSl+es8AqCzOKPJjoF7/5EDznQZ4B+fH/uSLEXCU4tCwknWMVkLkdAwUqRwHElnImAYHVwGk9EMMIsnoTplMK9EVGkGCuAHJBpd91McYh+ijGwIkOiLJ4DkiuuNtsFar6O6f4mJYeIfvkwIa1WCukQU6eAbFAPLkX3YEGEdF+qLnuCwWDJQARUklkuGsxX7lvEdkPmZ56AhAaW5uHRYnv7GaAJO7DxcPgG9IAucshaARIi0Tm5NFixd+eAdFtLFuzPQp04kDo3yAtVFr6VgNAYmNfSCp5jweAmjo++bgCHw+FlD8CiGsaUWS4Im69FCCxAbU4b4iBSQb+pWVB9ClLmFhtkhmmQeozTB6233d/bdGRZp+OO0kjQCzuUGAhOl9y4oUTudNiuf3kfwQkRIuZ7SQQ9JPE7FtuAp7WIOQX+/YvEWVaDhCvg0LticZDyDKi8okKtHyWkAGStel0vl9nvz9iWr2zB6yl3b20Va0RH7VBgo+ktvAS5ubiuTTlid0VNzGxoJbiWIz91IW18D+lQVhtPGtWEw0CKvVXXGIRYsgzWhigPOQ9o3GJn5bxR3uaG7xYe8Pa2lsByGizbjvtOpLmvQmbAFIZJGhf5AvxaeTGmFZ6yFwh6nhNANGzKTQFfvwHQUQTfh2Q3SjjNeoqQksCwuLWuNyXuZqAXwuhYjQGTQCBxs77NjUBw+boFXc8Xm328j3eer1Bm1o3abRfqjJIEKht9AIdDv11KmKRTCew7MjygMD0UrP8CSLhnZFa2k4MDZDTPJoSbTjxLVdVMsuYWDxEjcuJgBPvGymBHS8CqUEKs4nGjZNub9Cmk/By3vbyzbeVd/5mk8gSaaNuy9rIjRtFeblBgtxvApC5Y38l4lS+F9JdoAOnESCB7uzTCSg8HnoqISogeAZmG2fXR4uiNBsCUvnjuNw5Ek90nBoECbTVk14Ijs0GPy9oErlp33l43cHmjnDT1/Z2AiPyWtf8pBkg3PjAwBXv29CYEjlHV5tHEpCzFDbJg1j2AhUPEFlktkKICogoxkK8zqQRIFRbkIXtfJLIjy5obHm2Jy0+3GmyvwwkTvtOw/O8wWb3teqm+yPfStyWNbOZiVXlzDHsiWgvurAQjf3sXElA/sqbaBALRBDjB+XsCN9MJCE6IFU9LwsVNAOE5cyJPTXIJPKDQ6ISw34qww68ln75oLjZstPqyTPZvRcv7+VB/hmMHLdt36STNEykM4MkBLxIimeZZ/Sv8WBLAnKUNgCElrsPdx8SQpTIzTC2HgWkqnXHzTUIjeiyQhW/FMgnHxEtBwjElQKdTBvFeVsmNK7Z+zN4KdODApG3XjfvJ257vi7IbAoINUiIPPaHMyTqyeeYerS2qMdSaqeWA4QQYp8WKHxgZoXAeNTEwrTIhLrzzTUIC50RpIeTGvkQf6E246EzXUhADtNGtSb0u4fbIjFuYg5GL+7jUSPyMvizZxJEWsJIU0B4Ip1YNK4Zym2x1OsYBtsSkHLYBBC+pdA8QvgeIjRRF1cTNSd9Pi8Lvnk9auqkm4B9wFfbkxEClgrtGM5cAnLdLJXeEkDIUxCrvDt48/oRPAQiL0YD020JIo0BcZhBUtr3dtyhUyM4kYKrWjxLAMIIMfPZAt3XIng/esTEQlk3MGDn5uD8ut8QEJ6+J15Tqtdk4dIHqRJ2+JKuLiDkEQgeo/xJPGpEXr/pdc1+GxAxmwLCNtoREyrNFCGkRHjAV+v7gNkIELZBI/YnsznWECnQXS2g9xKFMDEj38mDpGGiEHq7rF74PM9U5IlKybP8s9SJdTH96gHC8IhGw7VXf4OHRGQ4MhLXbIcGafA/bsaVuMBIKZyiFVmZP0PKC1/WmihV7I8DclGn3cVhbSBIP3zE2h6s+eQxQFi5eywPgquE3v5pQAAMxnQ3CTpLs/RQBeS7k+XXitHYpNakLRrEe/9jPGpEXq05I99YVQ0SR9wgIYAkyjYKWtObqbsKdbPJljsKdUA8BsgHUZcCEvo9kH4CYOzlcCtEymkjDngckPosRoUROPyPHDLzFRo4IKo/wbUN3YpOHkA1sWIjU72dwktWFRDTGb4jov/bj/BgiNCB75xoVQGBTE0wi1zbOYWhAZVaXPL+DaRYxrawXZic1XvSmb1WsB0l1RUXnIzH38f9hB7Na+TuZ+k2VydnPQZIfUqjOBQRSmVWoPFUBYTuSVcjUoDfjoVxE08gz6oToapSQqvfABDQAkCS/F+//CQeNSK/vO0lbQBk+T2kcLjBxIkYKXA4VsK6Dj1wBGtngyih4Wv5JobifELA1FEhHXpax8KOcaOnG1KtYA4O0U9pEOPi283NuFODFhsZ1pwXsck3pTE4tn9WAvKV3o5eg/lH6ZSfk1eAepZRda7KspsD2gDI6N0vP0tHbWm9HCUrqkHYS7VAW8RIMS0phVspVHepUp9XsWKmEiV0YsP6OF+YbtP3+bx2vwGcnpALBRXWyl0fVPVd1AeJnwYkKBHCt1fiRnIXLY0nxKA6oAH0Ew6pEkGodgtTSww6G4rrQv49/C4BkZ7SygHSXVsOEKJD3nYt8/+9NQGEG/HVeXHK3kJm6CthUhoDki9p4CbKxooU8CN+yG8sZIz+PRFbZVkdi4hYEYTsjRqQ8/+yd24/bWN5HK+ms4LZnYd9GHWr2Ys0cZETUJLiOjiemQwUmXgcHEKGwW7aaUgj0qCM1WELJYZeVFCyu1AlohWV+oC0dNuUPjB9mBGPPFXq37U+tuNLuDQHapqc+FuRto5j+5Df51x+55zfTzhkkO7V7L5s8cTaNs5XlihJj2oiTSgtkn1vRz06gwxCRGKsMbVTBnHlrRsl5SQticcCpN3lhQVEOft8jKHaXfhxutSScFMf0kqWyDiVYZywxcYqV0CFb+nGfG/a9EZYAlW6Mg4P35PBZ5XOvc2uy/Jzn6TtgFLbGFsFLop2Ny8msazEqJ5aS+gTI36QhiSuXU6iRYCwNQCDqDoKtLg+oom88ggK4JoH2Og0BuDjmogi3qGAUH/Mtrl6JNgmRB0WqB0SMAbPi5YoVqCXJEoB6xhX0PY5aR+0uoQryT5giyLTN13Rpqjry6zAaF4NAbcb5kHyHEli9OWCevAUPeiVJS5WzwRGklhvVAueFbAMNsw5Dfl5LsCLrEgUvNokZ91PoKVa0FYEVCRCMiMKleUoqAGwrGwN2wAfGevIbA3tIiYGCwjYnx4da29Nz63DNiEgNKGgWWzlwghlbgDUGpR+YcKy57ZMFTAj04aXLVw2uzzyD/mAIAxmb6rVfhnDTbeWHqGqMjZYyJFkbgLblOs7sGhJewSeGrAM+S9k1xVJ/9RCK5rdRoCkuRJ3d5kUBIHYUFGQl3PGKEg5L6yzy4Yx0fR+qfM4TK/VL/d9b46A9GsoBd9eaXttb/0NEo/uT/98rf2jmnwD77YkvXpg3Mrw8xWSMALygs0SZD3wbZ2Qy3nKjM3G05aNHnJld3Nzt6LyUVmnpbrViTypd9Lk3cvJ9fXkq+F6E/VCYPX8B0xyb19sXj04r7kTXrFMYdqciq/I5b3NPS10tfxEYM0bUvXAwZXykyzl1QPylsEOW/O9+prMKI7BNiBStP2T245d+ytkB6u7NJYMtj8gsC2IRCbNSOiyvEnW3aBg2RK53BglXZajtLGMXcSwPcNgy9oiXBANsbLsM8xVaaDy9XOshl8eljcDmlNa5Fl7eHn7vpElY0peOVsZ8FfsN1Qv9b3P8G+LLP3EEmFevkfrq03AfpY8/UpuLNFwDxwhaIT9CcahAUkVOxIQ35y8ayTtqJRpdboBuGV/KOR9Uct7qnaBL9jsazCkZZGufgm5vD5pzU7IezeBUZbLw2UtQ4i+Mf1VQO/caDk+DhPYCW92B0UhCNZzWe+oYP2rYPaTQBC8yq75vC+E/OSGrF5pGbBS2W28wTopQbYgCERWXEhe64YZhCiARKKdCciMNRvTMAX2GoEjr4ODeft7WkqmJ4JlGbtICMldtU7WMnpUFOu9jNG2eAwi7lt6AdJLGWeBin1vpVCv9NmjMkzpqatMQnzsc61ZMy+1VDCjZykjdN+e5alf3xTyjH59L2F/Tz9jBRYQFGLzBoPxz1xAmor4s34vuqErOjOGiSKzPRONfjsjEiy2ZL6nn3FvhWFti3Rz1PLN3Xp+tOG9Oa+ASzY+lP+QBWb71V69i6WMVl7EAxRrpJ7lxZm5hvtYb2iNxgUeWMj/Z2/YuNSTdYFkRWs+XSw5Y5bo3jbG8lfH5qLRmQXG/p52QnQGMholKoCsuoA0931jvoDPkBpdlARH1AEC5pv02RTwMWKDj9hLF8j8SnBjY3r5G0KYxCW731SlSOIpwYdnV4Jj345diEtUgRIlr1np84O+w2S/oXY1RvB5l5LqpVjl5mJjKmfSLJHycXXYrpXN/l79FAJ2kI4EIBdcQJp1WtryhpvJ0UXv/jTpWmLxxmkUiccoxcQDFMOL0gHTCup8niSCswK+AE3iomQ97eg86QfcULkJTtL1S7H7gGQbPy42lu2A3O8uIC4gjkidztbNjhWNecT90y3GWdKhZ8Hf8YSXOl6cVhcQFxBXLiAuIK5cQFxAXLmAuIC4gJwmIFLnANJl6Ez3eDTZ7qVOaoCIrCtHpO0dQSTDFJgotOqQcA2G/pCITI+1u9TVvGI/lXPlhChe9ZxlkcgwtfanJnpWn581tbYdb3utbOXzeWmrNOvKCRVZEPqGwXqyba+erPSP81+YOt990Ar3iZBFUzEEBNI8TNG/L7pyQr/zod6Rkd6RGBIK2fXl/g7WudCERcgkm4oNXvnRlRNaJGKqkaCRWMo0/UKhIMRCB4QxCYW1TFPoSCmPAsjikCsntHh1KtyLpMLh0LkDnFrnQrFCH2IK9w1QLiAOAcIOCBOoCSQn9PWG+g4epH/Si3sRSxfEk9IV15adASSe4wmkbEUtjZfvpc4e5sf6YnAERyvNFE65gDgFyPokYinJcAzr7+/r+8sRgau7zg0IRD9KCbUo1gXEEf2IHiAYTtAhkCGk6whEPv9kgCEIZNJqEZS0eMWVE/o6jhQgisHz+Mjg2fcnCDk/2IvzyORhI73+oqsPr/GiP0/hKOFB9IeFL9+fIQT0s/4+MkHgiIjhg8uunFBQIpGxEhwniMGpc91nmlnTq/azCgwqgHjHgq6cUDRPYwwqwpgR6uyZJpe8d3Wd6VolhUkkVGCmL7hyQgt5CkOHj2Z6V7bAcVwaEXFgub+rDx8pJ8nNf4eK5oufnYHYMQVCj6aH5ofmFakvbf2adAFxBJBrae03jIKGxmF3FBbRqB7mv5tPL8N+9QudKchqRAEErRakIwEBiCSDCzBjz4XkdmdqGXKQ7gKCCCDbSShtL/w614kan4NsapddQAwba9dX9R8v4fRu77+3OlG/vX4H94taeuUCgkQLAve1P3u3+b+fb3Sefr7lAgIFSBoVB8VxALnUeQKAPHv27GXzPy9foOPFOgYgGS6hSH0x/m7PV8XoYf50KCCXbl9i+yWWZcVmf7Ail8ogokQJFpBxTwQRJbIMTzQv9sGV3zoSkBu3xAJGQsw+C6VMxIOIPoUHJOVHQx5uKwezIoKfUgC50ZmABHiYVW50MeFBxEj8xwEElcqBy1Iwi069scWObUF8EPs7cDxXSqBiI50NyBbMtgUXEBcQF5CjAbniAuIC8tEB8Tf83TqATCktSAfOg1y6fYttHUD8UIdRAqReRNPL5DQp8C1IZ7p5b9xmA63Tgihm4c9YpxgyfvUg2oCAMkbUgnPGdhOOMwvvbwFA+Ae/PL3+sPM0evG+N9cKgChGkEpwwC4848XSG6BSqTieAjbDJTKOWEmLAKKUDJQ84SmW1lbj1Wp1q1qNr74pFbXDzpT9WIB81YG6eF9sBUD8Hj+XKb6pvq3VHu9Y9LhWe1tdK/o5zgEraQ1A/ErNUFxVSm4reL3wq7MRLuMEIccB5GLn6au7rQGI8oWtagbyuEG6qbxxgJBW6WJx1YMKbhT+bSLltiAfTa0CSCZSN5GaKaulFBPIdrEyj3eMctP6j6X0oVUnmk8XkBYHxG/vWmciNZrBsP6GJUD9GMaQwFp24lykwevjb1NA1Ge3PLw/cZXGcLW0dRmFJxVYdqofvugqIIQLyPsGINCAYAogmQ/gftQdN7alDyRY8tLII46r5sILa9Zq1P9BXKAfB5D9z87FKR4/sDZSCt/vzV2zFz2TOWHZwWcjCagWBAOA/Gu00/C4PjoKAIFci8Wp3seTfkMJzj745FZ9h39hVzGqmLF+HviBT+ze+RiAAG8dB3x1lkdPzNaLfuBvgG4ouqfIcSdBxK98e6lMukepkJpezIuLD4Ye/XT/7uh1UKueYgX+3iMO3n307tNHj57eyVMwgBBkkUtw6XTG1ks4hkd3dqvqSVhmjhOlwGGRoXEMp9hfIraTa7Vq6qSInD4gGh5rtdqstVHIRMhDo2LjOMkP+a1Fn93ZqZU4LnXcsvs9qXQ6EfHnqasw0a4fpH/69/U7j55ePAUjVe8wOjp6XanBRx/qRx6qB5QjpwTKxdE7d4bidLg3FIpNQSgUiw2MCFVP2n+8Lwh8iEvMZh/vhGqZlHWoijOHxk4nJuNfpyLm/bjazs4OHo+cDJHTBkTFI7XGhpWHt4zk/B4u/3/mzrYncW2L459F6qQWTrX2UEpNGOYFaFrEMmFAUIbijYScjgrhHCRoIJ4JkQC5RF/gO2fIJGbmxcSczHyDe77YXXu3QnkotjyYWTPJjILI6l6/vf5r71U2P8X1my1x2PXb79mTgjwjIij7hqOjhzNatGAv0a0uNTrRayMwmFS1BPN3u2uwNvq6VE0xQArmZKlv5Krb8HNzWDNNz47HTownbm+/NwcjT/vSnSxpej6BWq7IgyiR699vb90kxd/MhcjLAoLxyLTImJsF1/9NDx7wpQ9jrFkG2VXrFXHU9U1+fQ0QmcF14CPinGfcO9VlEgKRv5JCZJSYxn0iL9cfm53c/tra2v5JL9yq0+nT+0YIP15l0HOXBgkTqr6H1IFyxyxXCf1UWJxleKD2KOxQMGGiKHkQDVEiPppHCRlPV/oZBAKqB1FCbJJElg/TMJPOqPZeFBAazQwID/KARSu4yYwhZsuUucRSxSHXO8h10Lpuar9uf3YAfZUMauM+i0keiet1maXBcVntgoi7O3U01ygJBZkiSbUng3eND+KOHoTL+fvrElCS0iBZyrtpt7goOrhyVvMEk0n7MZIR6ycID5LYdAMhg80NiBJf1iRKIBqI09NBDZKU0bYBix4gqMChLM+YRF4QEG1mWAM80HlWAXC9ZUgLtEyYyEuSDLiHXX/QXIdH+PVeBM0O9rrd0jfcXEdZR7mtUohZAh0rAEep8aaeU4EDqRalBN7tdvPIBEHA/8I3eMGvOmsKpzh3W/l7qKJLl6GlMHJZjUpzXSiXUhDtt5M4Xvmx3Ia6exOipJM2RInImhUh7Hqn8jrSzxNiAcsMxAfJErG1uu0weWlAYOIWIzkK4YFcxBqrf/XAr3SPNwMkm6vkB67rCgvPDfAY37Q9O4huz1zjrnJ0+/2Cy45QiIHy//r0kZA4pab6ecQBsnX4OzD8NRgiR4g7gZJ4OH1XbXdTS2AkxQSl+U5N5lqi3TlUbgVwlkCjS2Ch0e+ioKcUIaDDC5X0IErS/0KU4IDCYcL7w5mZkshLAYJdb/KCjoeePSOyoQhpmshLcL015HpvyHUitoNW3e24LvLSXMd4u7jIIgHR6SjdyTkPpAUK2PBrbJibBgpgIrgAqEC9cqkxstC8xpQOasL6HOZ32tpSR+kjchLTxxXZJirTH0VDEdIyixJdh+txkEnqCovQ44SgWLth8pKAINfLazFCmxnwmx7OnlOKEJJVM5VMP80mMyOuk7zQtNfMKL7y8n5+ZvMHuER3YRIL8LiqAh0OVuFqFP+UNyzFH6aEd/u9ihJ/rKSgrF8oIqFuXmHtLISPrT7uiLaCJCO2+nOo/hIPxsUc8yIE6fA3SIfrYSC2dJkxCBN3tjlDz+uLAALvOgPpgze4rmXPB0MPolkRAt8T3iUGnSnio9F1bXaI5RzWl7MQizEefnTGA1WI3dp+9XJxeEARcZ3eV5SaX88cNmdplEncvEtRhPp9t73QNHLZLXA67KKpAAAgAElEQVTxADHjteJVPmI9IpHGSPbQHDqIAk1o3DoGu8RmRcioDscKy5BrtDDpJWW7q1kvAQhavKJzw67r2bMuPluEQIY4qbzzTXWdzBJ1O4SIhbjKz0ZHIBBX+MaCanQmFIJpf6tV44AOwT4cBkYgIwIjJ3mmXb1aFCLMSqqbD0hgNWqdsmUq2HrPIdvhQyyzWXI4SDSh0d8KMS9CRnR4xoFkxiYxGiYgs2wWIi8ACJJXdSLLjrhODG+FmO6EkGy8aXSdHnUd6zZ3tmV9mQIIKfcENR5XKXuRqNZqUi3guyxdMYvBo9q+zK9Boc3zM9NhYMTtr3Gqr9EuLQoRZoXpVu9O3ySS+zd27OLmsNWydRcPCpKC4CZHWo0ghTwYt0JMixDQ4cm+DodnNfEmyOhptaSbL9gsRJYPCHK9lXWP4qFnTzrz3E4IyUZ9gx1SHxaXo67j/Bm2TAjAJouOcrlc//r10IZ9vag07hqpdmoRfDBXgEdIjnM1gR9ZqhqEPeXX16yeTNDLd//kigSlEal1hxBhFqUAS2gD//TjnnU7Psa9djZ2qNASZzMWIMfbjTShIT9ThMC3snmjDscyY/xJZAAmUluELB0Q5HqYIia4Ppw9TYsQCP18gn7edSL2n0zGeg5x4Pv+6fPz4+NzS3/geR/v26VS9XIR0zNEXqr93uHiXBDz43jo5TfeBfHHo15nLejxeGpBpzcKFKCtEGECJvhbfFxRmoBIaEHLCKFrsPcl8cL6MVNvy3Rk8JkbFoPkJjYpSLQyvTfYCplchIAO3zfocDkCQSJsEiQx10T6EoAg1zsTXcdl+iB7mhUhqFMx8S7y5FLGN9F19AtYaidpVfNqtxo4HMmyjaNhLk5LOFgWMzG3mYyXi05IHlpFARCgbQ7c/aW6d3dOeq9yJ/ssWtVFe+k1FwXPEUa3SbQ0si4prUa7Oj/IDF5/Ru1f7Xby7w0rJzpuID5EUcsgFhvetSDB4TtuWGg8dSyaFSFDOhyeE37aCZibkCUDgm4275m6ThgbCZBwpCbISzYW7u+QPonLSUoMnpndtVYV0g4fOqoXjWLasbFq5axbCI6b121spbkXipjQVbeUVzl1HA8c4MBGEIFBNJN//Wx8+vR78ewLtrOz4odP3xqVv+o5slZTFC+U9uNpBCGiSPVQe85cBxij9ed8PdwJP75LvP3z+NkrBQ+f75XlcqvZbNUdYtqSysJBQpkECYEbsvpbISZFCOjwSEWO0IZu1gfWpCueiHVk64QsFxDkes7UdZxC+lshJkWI1qnYr9GnuA6/RWB9z6ssJK/ScqHD+uOU+6T5dnvb0rgfR97fp31lX35rpd29DDHMXHFXOQBxNbH08KseYGO/nPj26ezHjx8AxVmxeKR9ZvbRUbF4dvbl89nd3f0f+UhL4Divf3IxQinedKk7DyFMiGmvyEK/+dC183b7fPqVggf39sK7Ua2HLCiEfdbuCRFv4qwZH7hM7y/moEbT7CSdEXudoJ8kllwe2gkYkxrqofjLSCw5HGdNboLSs+dgK4SWA+PyEjdpWnMdRBvVEy0sGqTpjkvhJE/QAyPpEcLbx6sbG9PHfXvv1cFTB7DUScwReijurptczQQPv6rmxP9+ADbOzo4+aDZ8nM2HYuqfP37b2rovfi5++8lGzer1KMduzaGzmFC1m5Y4xRtVo8i8QSmY2zueRsjG6vl2OC5JQa/X5fJ6nRLn6SUtrKvSGcJtNomi4IEU4hv0tcrj94SADmcTb3QdrnezbpreWcXyOfnXAeREYM3vhDJmT1SEjN8TQpIBrUmTtuA6ybr35Wf5yIhNJxeEIcTmdXok4XBqEkHjfhOFcXdFVVWNumCGD2yBfmFmSx+lbrqmgAqauHDl56WfnyFtHI2BMfig3Oo/gMcfv30q/n70+cgV114G4+YfQkSoKQVIArMRwoRKlz1OiqJADwa1jl6nQr3dM79QG6vHxweSZ9Cq6HI5OWfBwl1T4kfTDKILjbC+mGNShBh1eL+blTSbRtXwL5RBCusB0oSQ0ew5sQgZatKc7joA5wo/M2FBis6wXBD1KsK46wPv8Vz8aV6BonEnlKA26Kj52xWNcly9VJ2BEJQ+Gr2R2lyrtPWvean5xcAG+mzc4pCd/Q/zsfWhCNnkR4Hj9RdZF4Y3U+B/vF+JJyCJMLO80dJ1nAM8nJLkdEWdOC14XR7voSkhcJ1WVQlfJI+Cdhc96FoF8V1T9HNC/EIlzMIECQ3DYs6kImRYh4v18Z2AIT5y6C4V+peoQWiHuEq5TXMIyp79RgLcAkKS05o05WmuE+Smq/naR/+fuavtSSOLwr9FaaPOFKTInZc2yGTDYBh5MyA7KjJgIMwOoI1TNRQ1ahoba7ZpE/FblZA07ge3H/Qn9I/tuXdmmBk6FN2ku71prEZQzz3nuc9zzj33zjh8RBGhf4YO8AVRIQseJW3oP1gXZwuG3yWiyoiC4FDv4NEICRqyReLd8IBIJrVe4yse3eNHhc4ZwKjMNa6urnYOYBSLRfh4dUrw8Xl7kzxdE5k/Cd6uKRTrBB7RWRz6WvwXchD+0A7gg+MkamGtGo+nj+vwKV5LOIDBiFGdpRkytaLv5c3xzUsfQ6YNEDImGoEW5t/SoxEScmyFeCYhU1Naye5ULHntBNilHK0ny/5fJEkH07PzJb42EiGYPe2tkJVybPiFriZN45TYKNOnVumztpz4EULwWsUq4ESQ00txXdWrJzGyNHLKy/gov+/uahLxO/f7yZPq7vFGAdNJDvV2io8LPJBX3fUU0tgh9mBZBok5AyEAFqbZh5ScIOOgg8/eOsZi59Lgj+LOwVVj7voJEIgBEJ4uvE4ihh+CCB9V+M//Qg4Guz2CD19VNZ6VrsY3GDxTTCBd3XWOqjl2q+konieRWajuq3js74YIqNCrxDgKmRTae9oIqWEIjV5pdBICOjw20OFGN6vHToCVob+R5Zbj4Mj/DZBIvj0fC4xCiJM9/R4H091NmuSU2EjTffT7ttDa+rHppTrmD+L3uOH4NSILKGZNr3rvC+thw+/19D4OFnVfTcFCCgh5df7YG0LO27TCuyIYAMEzaPX+NxS1qIBF93eNucrVKQbE0YTzDtBg8fKPF5g/OkH45unOpTIgkDDKXG/eQ9bAs4GB0CLwo5RE95FkF1w8LxF81PfjcTU+OxtX9fT+Ejabk5q7a0v2WLuxxpMFPJEMvbQPk4THhb6fwjJLpPzlcXVFQWivFEZJDSI0zK0QnIQ85YeiJFR7ancqGr0WUyNEhpZqt/LyLwSQ7FZLzieXRyLEsRXikYS4mzRJI6+X6asEH6/awo9Nx12KCPt4QQW/p5fWnuhqWtd9xLGFk5TX+HjSJN/miN/1C/B9Wk0XcKig9mOa3rG8KiOODQRcaQKwR/N+8+46pRhcEI2yh6FNyL/nJo4cyDAao4qfDXwUgxg3E92UZBFINCc2tit3/T8/IIblXSTCzqBU53Ey66jYwfJIWvi7qu4mOVHkfGswU1Uamy0OTjka5xutz1gCnxmYUnV2IxaNbVTV9N8n8GNoVB8jsvzZREtol9hRUgMLDetSOJKE4EuIzMuY8HDpcKywPHcCTJHRyrda5cgvIrGwTfmW3KprnlUKgz2trRB8lRE23b6JasrdpDnKdLLRAmmaIIwzPRHFfl/dT6u7IZxS5J7qelxNYgiIhbD38Q+cyTMaoEJd+l2jc7ETzCM5Efwe3ek8Iv3YKabQjDt2o+FDgEf/rtLo/+WkEPyot+2rddf1QsGJTsfAxyXGBwCu+1mJ2gRSum7MNSr9/v0C4sI2SxESUfjLx1SzgEASQCCipqfVE0YSKUqUpGk1ru9SoLKoQNLncRlWcobME2blJiTpDKMwL9X0fl3C9JzNjKm8E4SMlBpYaFjHT3ESovl8MZatwWDZGL6Rk84MOhVJI6/XToApMjA+IJ+f/EUYBAA/CRwif/BGiMGe9pnKDFsLs7Xl5UJheTlQC4PWPCwPOhVJI6+H6aQJTdsj+Mj80HRCIBSVjqs3IpbHlIhysxD5YexFOun1RM9kFIsEDohGn4b8HEJFYYFGliQssvLnD6QQSD/O34UVdihwcyh83+9XcM3qbglZFMJT7DZQSCV45Cg/DeMDpwkfJDsD4RqbZJek0t9sa2jGkefA/+yhJJ93HoGQnRgoUSWl6muSaJ5OVlhYSm7wRHGkMds9wJEUBfNZ1fWLqEKKgzSFNmAt4fBS4jxX7rmK+rNlQQCpUfBGSMg4fmrtc5xptdXpZr3XqzeTvppWOKzLLaNT0ey1eD7luYgSkTEuSP5jiYX7OrZarfYZveqJEMye5rX1WF5GYr7m09QZjNSHZjK8TH90mP5+pOkxLYLxIaxkzbZGv2e1t4TlklQHVc2YfqcZcUmPxzm8MsZCHn6fosHvzBJ4OqpYNxHMgCAPSeD3ZvfBN12dvzg8DNvyihRhEfN6865ilHT7joJUGAnDFAL4CEJu/uKZhQ8gkBeIt98xDwSCH5cGELmrlNEQFlkNJR6eqi8eXEKMU1w8rhcGp/dpJQaEMC2ZEzW8ziV5QAVA6kLX7IsepGOdUAjDZvye11/5HQhZEUZJDUNomDdTQ5SU21uw6LbJkIWtUtnfkm0dbvRaePUp0kRkCGVHkIzdxfwpAHH8YoKQ7Dwg5L13HY+wZ2nQIyXLQnswwPh5Wd6y6lKJbyNMD4ULZWK63zY94tEot7ISBSAwkHn4bCeKVDWuYqksgnT4ftc1Bn6XNvbTelSyQ6Wuqms4UtC7g8UH4SN4nldo1kUfoK5eXV1vN4zdjsbB+ddBFsJzWsWikKB1dOnIwMe7oqmVgt2eTSBcDr9hbmduG0Nk+/qvnrNYhqtZAfT2oal6cL2bB6ZlYqp+LDmuKAFCiFdBcIrRpMdCBwqLYQFCPsW+EEPymROVy5a9On78zjCJYDEuv9GeeyykU1POYk4kL7dagjngPTJ8aelw0sgbe+65iGa/W0QzY/sWfwZAcDE140ZICRDylvas44XsrRBcFJax5Xk8DOOFQUmuHPnkbXqIrSXaeaGV90cGpq8kPE7rZPY0WBhzOnHzwO9SFKQ2ZJhUzsPvSYCUmIMXTDv8LtK6noYVlkNCdz34AHx0QNO7A5YNIP7yehNW/TkI6kZx/XTnnVRwE8KAQgAlxcVnLnwAgbSdBPKavP508QBDpNHo918rkk0iZF8dnT10b3PxfFKBeVlQ1ZeK4zIXipmNqwsSTXk90TMJTCvdqGrK+Q48UVUsZbVXGY+OBn9mcDaDIGSk1MCd37efMv5BlLTyFj7MWGlZewVkq8zzJIg26VpEyaGgr+8zY5r3fgJA8MWeb/cSVpcaNt0PCBHaES02rDDhq2T49naybGqsbEK2TSfWC3LCbNIs73mk6AQffIngY9LEh3GDSi/7XWdv5v0yOI3X9TXJdXnTR10HCqFor9MIGkVLb2Apdfqdk5Z0dQbISFnpLj6ovBtBAYfkCQTCFMpu34EcwvC46qyvQxJ/vqfYNSmqsdmoVLAoChJ8rLvxgQmkeWgTyIyVtKyvGxABEmmiAO/4nZCq9w4edlR4sfv1ENdzVXXDbfa0qkPy5bWSTIVgZjUQWLTohBRVNVaSwtl3zR0rmW+fPp2VBqcAiRj3lBrkaqsCOrMWXdBYQBnwjwzZ+GRysAvyBX2Z9g3/ABAZmeEgSfi/3aJvif9aYuGLC7/c3n7zJ+zHHPiNKkV5mXUhxLzUC30tGSoKfxAsww3rW7IwOCeW6KFc8ru5C9XC89j0Ldt0fyn75RZ9Kg//oYmzGs2JrKrfOAGCqzWQhYAbPXKkZI6CpP5C5RlXpBzrKg+RcLg2HiAYH29R1LWas0j701BXle0GgcfEROfocyFnU0LCohAMiOIp7k589sfpQF8tdmVkdrrjV7fMnCUYPFo3WaS/mcFFZQcqWWWh+CCELHbPNJpjkqru4gNc3tB1mBDaAyA+smuinrjfwF3oVRGWntpZIjIUJaUUwmeuy1aY2GLcLTVIkNS0jcHNNqTmtTVfMs8rlErzW/n8P7xdXW/a2Bb9LYkbGUxggmswbuXAg50Ix8RETQg0KdAqCNeFEsWTQeQDNShqG0aKqNTw1rS6UtX7kFtVmbd5nT929z7Hn5QkfeiUh1FnJpBuvNdZa++9zjl53xMun2cnjn4IiAw/SSrVr3hpU6Z7+w6JfwMgeXQUXr079Tw4BCEGdrpDQ3W6fWXjbBEbuW7PqwJxGxV81fEE/cWO4YVeN7qfLJEPf3n8xuMOwYc864Zerw7xqq7MvYkBrgwAKXFcybZ/S4fO09S+2CYU3VMBEiNafC2Ej4z2t22WACBW4eJH9NVpSvKMhCivYDW8f43DcoDHNsKDYmAsa27OZ630JeqvwycLHj6ez3v4ADjtL/cnu144OJlBiMxcwr8Difylan5fAH9xTT/8EYSsXAytBKdGTTuoRZ0v6nE68+gGgIDC4kNHMWoCoRw1MQkQtBXh0dTBNJkqNQg8hFjL6PW8MgPTpBh6ybLs5RqU8L8PLMlPk4DIcJOEVB+Ype8UpWX8WomFw4xGEg/EuzrPe6SIoddzoU63szIUFntlb/xNFhESL76c4H2YzfZ6s2zA1Ubwoa9D6OVO0Qs9b6AXBy1b8Ql9CQARoMbcse1EMOFjGhTdD28EiDY3KTWgKLFXoZqxNu4EyDR8cKnfr18SdXX/mLAHYuANYOCDFPNnITJSyIsn7v8DfKxsz7g1+8pF2ycQMVX2ml4ORA5fQGFz//pST4nZMEJ+hENW/pT7jznSzWi5h7RyWlqN1Z6ZZlPjSlMAAjVI+g8yHyINdKc1PDCP5kCTMY1JiRU3lsUkOTfxqpB3z+LxEGK4UoNOuJRiD9uzYZNEvFLHV8V/qzttbpd71WUvTYIiQ6YmRUwSGYqad5/ZJLuxdasR5uczSKUegdBxp8fVZ9ktwkgfL0463Rte6Lxitaq9MoSeC7Sc4vE6vSYeg3dA44SOJNQelkRnhwl+RGkZPjNXXvRCj1e7JHQ+yUbPJ0I3dhsglbURaKyaV3iqacIRA22acmD4BKcNTJNJw3NPe+2cAxO1hKrEdu+QWNi/KgbxAeVHLfPm49MXSB+XM0/omBwtJPMP5seVmkchpdoxUMje9pMFBx8PXgWsX4f7fJ+W6Dh5Z7zJO63oF7AUebqHMmsYKH4IQlp3eywXnlx0+puwMmwerdpiinMMz1slzqnblSl+al7EYdEOx6nZJuco2FTEXDUtFWqWaLhIB5Ux3EDjoIJp8o93qJknxp2hOv6IaJ3BU4fKtBwwdeOO3sos7nunf/ZvfIMsgYzqlXctijGyiDIoMgJJAhoD5ZXEo21Jma3/QgaB0M8w9CT7GflzWK37/En6eLmWxbv0sXFa7mEpTprYBAwgq2A9kbtdvCBermPs8UBx026vt3tV3qKTKiyhm22Cj6ITulyvnqG8EshPZCf0pdFt6BJHBsRzKZLuae1gKaKqWazbOXHac2dIRZ5V1cRAgVzBjUApxlw9EuD9m/3q7UeQ4vzDSGUD+IDyo3V5jdUH0gdJaddiNQ8UImTobBxp4RRUGFAIwQ7gY8Yf9EFBv+65FN3B+743NaEQWUAS2bvOp0pSCCHn+9t3IWRl/0NfV4BCtswlu6XWtJqWPTHfDtJpAMhBCifp30ssoBACkJj99o8omaQDnFaPDpBAWFGuhztYcbo3LpkkafLVSxNXjC8yuJBicc7ke9i4abc7dKmEpKh0h4VmhFUUQVDYSHM0PI1j05Kuw3G5StIkz5R4NigynCTxNYZCFlo+eusdDT8ZIHHnqiiWSfISWR3cGzzcPp4zVEfmbC2SlaHdXqShGXmjuFto6ozYyDakrKTwrdGwWyE3SdH0N9bL7fVeu0D6HI5zGUIn4pSGXnflFf6E1MxPzEFYRSfF5I45KOGWheyWebRKAVKbJhzgd0i1NSw41J23ZhP3OdTSLXju2PUSI/3e7YIFMrlDlnAPH1Jq+PIlpY9XVF25I3KswseGX4VEU/9FCrl07YnBQfjhseITiMq/hM+7/8qfuzs6ax8R8rFTs0IISQ0v7pypHx7zjUiWUzM7QAE7hbmDLdCUR8sqatGmprNTvyiBtKzUGDpxBnxWbK2hOycNlKKLm5MEMoqy5BmyVGt8cucCgaE6QUhslMM1FOBhFGfJ3WTy8BmTTTREgZz4yCjovGgoza2uc50SiPQKlPrrvdy5Rf5epVaOJomDD1djJGmSsMyt5z/+dImVx/1eNH1JEfa56xRhtEuBCClYSR7k1VaZrgyLlSJZGIzTQkRMRDFyOsVmFIydnduNYzFDa7NqDleHLjF+8tYIPsKZEdHQT99ReUXJlY1OGK3hL6czHKcVQDvYa4PBPXju/3umphns8/L8VLeYrkJlKqXTJ2jgehiJzKE35TcVin1dkBa27/A09WqlID4Sqfj1HuBj7ynSxwzFxwwZAQKDzD8Y8xnJtb2nhtcvnr588z0+COwCBPJXmEB8EoFKZO/NuNOPhRFSvMuXBb+g0td5CxBycoQGZjSs2ZtaRivYth7Vp3uG+Ojftm2pqmKb74mb17aP1jiVs3R+4yx8B6vRlehltUgiDJLI52IgTUCMt8vtlvVYiO0ifYBKMLAWreTru01hQ1S+MwQxYlRqDePkshjgkKLRKefKvWFM0V2R4SaJqzEkZ2IP/2yc53+VxMLQG37oWIRdXZ3l67IzmfGG6kKiVET6gJWhjqHX87NnkWxUmOKCU6QoM+rSeh/ejwSa6+XFKM/EBsR5RpsbZO6Dp72AvGLc0MXl8HzKOI3CkgUIeebscoBn39LQfGLPWTc99wbUIBGN404cGzc89xN47jFW75/+uXJrnl2M0zEpgI9SapF0d/deLDj0gSNAwMc8xcf8uOpTSDb1+nqPbv/4sB3yLW4fi5zkSrH0MiGQlVehfYOuzHrz7fk4F0QI/CHVuctCtnL8OqbwOiAkvXmPBL1UeKRRq5WuTDuEA/+TeGLDFxXTHn0xj0x812ozTfDBCBMyPz/XcD7D1RqQJs5IxB+qj2LiLKGPXJXCI36WTIheigR+NcVIginIhEUQIiRNupaVOfcX0aDG8E5KIBRi/LIaJP9Jcr8+vwhzNu4HhurKcpWGnqfwKI4EvFgnHLkXu9JoNE8JROAjinUo6nudzYzjzPRDn/2HNib80L+nkJbI8mKG00qFVXyEO6NH6M4CBdEU+Bu2mYgHtlmoxVRtc4csjOZOC577I5Zn+uP9lVv97QuSO8wje2JLqfZH3Au1d+nRx8z26/nnRF6R14PxZt+jkNrgevwtaE/01vdFn0AkSiDHT767WdS1bxGEiAGElGoP7jAAEAqJsHwCm1clvrUpZGpqJqYx5tJvAjN99zjLSg9t4mZUtVJzcPJlpGdgWUnoPLsxmCSQrP+Y/TSp+2lChurlxVyPFh/4iPP1M8bNkWm3hWOeRIUCHb9BJRPvYLF/dhrCR0BjMN4x6rdSyE8FCIS+1AiF7hRhbq/b6+Ohh4QUHzj3z8cLQpRh2akbytybtxPNLvHN0NUhV27L1V47R5zLTmPia0BeeTcDt4zJFjQ+jxiX1risokRVDZ57OmovLbE33m8lRuz379HnralC8+CgKeCtMlGd1/u7F69ubfBefKqFEjNV/kiMV0ReBdq7Pj7mxx3NNZBks7U2Kq9vYXzAe7azfi2vNf8zhUBmQtw0Xg9xiBjjXt/V7N3ejgCl6vBNcWSXMUc6vWu2PZLYmzYjKUn7vZklWwc0KNLxXTEBeFnUJ0a2+U+NwId4WsNNE1eM59B2hE+YWId29Q2FZx+zN1/Uh1PnKDMkHiNIExnTpOcnCdEY51RjsOFjrQW5/n/erq4njW0N/xadNMOIEDoMjuMJpU1mN5lhOEO1UGhBoJFQAanV7THWMnE3RqukxtNE7rSGZLdetE2jd+ey54+d9TVrrQFm8MJTbvzCYd5Z77Pe72f9JgtiNDzPjwZhJyTX7ebxHhLzgc+EAGLJvgPJhJhb1Oqn2BKBh2cDoXcKD6nosLfkkiUmOHDV970IMTIg9pPFKKRsmJvD614BnvVXbezOhE3IfzbfNRKoOx5xEcB1lwWrrqWDM6a9bILHh4TxsYGrf6RE7sEHMiGXzIQ4l32AD648SKf9VDbB3h+MMyDw2mVimxBClniEmNaEceFYeqsfBvGabCnNeXTYEAi6ZuR3YCMJOK1b+7q5+Rd8TPicofklFbhXoq56komcGz6kJt/ckghxxgtQSZ4W4Qrbxbc5RQzQEaonutRIGlTR1mCbFlUS4mMI9wUv97koHfkmsu4SIGNFJwnfv7PEfpIbh6Jjy5lswJ3hFqKLkrBOjEg28hSLbpPQy5OY4EX3Wk9MZAcWzRJSS/PklKmwCsKKZ4rouzOqMGLRwuR4qXm87rLiLAQNFAI9LiTo8CvKX/2J8OGGH6z8wfCxgEyIOwWV0szX5z9/dbzav1fazbN6onky1oC45XeMD3hVhhAUqE8aF4bd9A5sb5ZBBJHKSxJ0/q2Vd/9Q/eh5wO8Va/P7E11WUlKzCf8BeFfAXNdXhrSP5HHGqYlbEsHOeGGt8BrWyKeNfVESh7pH+JEE7xkHCmZwj6AOeqYkY3wMxqpVLf4WC8KCL+6Wif0kJRGc6X5YwKJHjHXdeyYEkRzPUnrbUkQlmsHNl9BHhT1bsLN/NDEh+FtP8JiqbfSsLUuA1LaqDsK1r68yqi9EwW2oT77/S4CKEs1HNQWtu6U6a71AfGwdOjRARzppwPhjo7WHCt5c+YOHB4gYDtwxKPA/f7T7vzqeDC4Ens0bkMNxBmTYNiHcNVP0bkCgPmnWCw4s1h3Zgn2IliXLcJpMEUKBBG/Ao83cV8D74TiohZL5oqbsD+GjmlSFUVoSEqv/+8dykW2kr5eT9HQArn8CzrGFQuBTgJrAb7mlxSYAACAASURBVLi4BH6m7rLvomG9p2Q8aqyPwWJV+3cAZJzoLOF7aRMPCQ7HLBtJl/Oe3TFChgUE1uGMs+DKzndutSM2fn7Z5Yevq9nR4sfwmg1ZT9jRdQ+ZLLTwaIhQUO7j2o3fuuvCSxGGhxZ8oQKlHA7vBCdLd9m4BtmzryE+Lkj4wZU/eHzMrvZ75xWNG779PDQ5le7uhWlPo1rJwJ6uVjnmTWGN2CaYH5ujCWfwdcmZcAhQDCCk/MJpihbWPxl6S4h+XwxAiKLqIn2U8KDuXBu4Dp4OkWnjSBqbBnPVxLBdhCSzWEkyOU97EbglvelUzDl8MLa5pFiW5+9C7pJspNPJIm7T8vExqHPoy8h5hwAJEB0bEVISwR4mzPwW7ZM8FR2tQkiOAsmdvCLoUceszDWFkCV6mrfkpIuQpCs6TUw8H8cN/8zbjAYf+LEuKZ6pQUH03xhxGALXnYzkgtVompnDsyB8uPu869MoicvORsuDjxIrfxAdnl1Yhf3svQwzId4uEpJfYl3xqbEGhNkmho/Z2X4xkeLDkMakgXrIMrFz6jhNYGV1Ne80dZxICXaEBUGvq/idSj0aOh4ZyylWZWV8tOeqSdZwERJBSnIvJ3I6AMIix2y+LRY+XnUvulcfd+xMznRUyyLARGoitfFRGCTunaY+xnhKnIAw/S4tiJ/obiYPlUQIQrDoL6lniTcGyZwLPV772G3VarXWxcFO9d68GRZ4iMiqjkM+N5areosfo/5RatsePRDuvYgqkrqiSqpwm3UHj7DpNOuKrtSbjnNZONsK4iuEFZCKxAIQdS5a63D44ENoqsOwn6Rcmkp7yXwK3uHbdLc802QG5GiMARljm8C1fy509hMKH4YYk6ohsXTs7Ky/fCTXm3nhMrsD/avgF7TL6sl6Q4SECnrodN8eJbq01yXRj2mTqMkPhhCwnd2jpwMgJZHM/OOb1gDTenc68JvWTVar5C3aBguJ/ilC0CZqDBU/RrQk53de9V0CxF4JEB0nfJklI/EyE92SwxVr+aqDJEccm5DA+aKQcRwKEfiEFD1rc6LbQ8WPkY+WholY4aynUVzJNEKyHHr5PttQg+BBn/jJoZ2xtLxmZYzzrbNYsHLBZkLqYEW1cOVqgHpzGT485Q8SfsB6OYjCe8ds+HYmusEP3wIDkuUNyNWIAYkR2zQ76712HzzPdoU5fam82Z+U641Npae2emel8sFBbKvXreuiZ8sQPT8Q3ZS10wd2Mbu9nZ22YUPhSHbIONH8vVmkJt/ouWNQtd/m3Jo3hIdakR+2gIbEW+wV3xhcx3calRynJsCGcGccGEcJb/FjNJff+A0AgdmJAP8UZfIoBxbYGi4l1pYrWvnK6c3GNXBEXNpm+LXWuR5cbTuOLHMIEZIsbWgfJ4jl9BNdCY00/EdwQ6hdhb2Ry21FHLfU/A/Qt2v3emfd8kG5ezbxtGU+kMYh8Q3qXU/v+aR3SfhB6Hy2+qY0PExLMJDuHjjMgCSORwzIqG0i1+7W4p3W/AxDLXCyziayFgGIlKd2S93ubrp0mPdAQmRqK3Khiaxe2tO4Ez0yjhKhGNEDMpZYTb5tU38HxB/sg2TR1NaAjsSHeb1bLfDbHdkULA4hJ3SeNwm9DCWAHhs6CD49vXcIkGJE0INEh10331hKHFUkXHEsofLsZjDYIJLXauRAjDjCyNW6KVkMS6pVpI4tZDrR/Q9YQDmo7aoPrQRqIbZdz4FFI6J7ADvrqgDBz+5UGqhKaXeqnJ7UyoTny5k3Y3+O8/gYDaFJ+EHGzXvrFcbnE44zEwL+tM8MSBS3M5Y85Ccwvbs65trlWDx+fZjIM79PSzy4BWsRekM6DaB5GKYtEqJS16K4og5/0ESNWmFRfWl4H/MIm7kYkNIHf7Gk/9LOReNYEig+rLqZjF8jHeEZvbGqtGrXG8tzeYYQkTaAAT886+teuWoS9clj3SFA/J1LOn5eb/uI3nQeEAIcJHqNkJoj2VvxzvWN4shUc+V6g24OxerfuhUsunRk+DGvoMkdS6HrrqcETaHrrrbluntpWRV2YWNimipNILHticlt1ZVTgHyg42UOH94QmoQf7jht99DJexnhiAmBueM8MyDruCGeGZAxtsm9dqy8W4t/fsBlDlJLMwe3pySFN+W6UaJ6//GHvzT35Fhh89M7y0WIqLaN4GZWbULJSxEeFImS2NsoO0KUZD53A2kuoIrUIHExovPeumgBb3wjjslcnjsWbcQTpBWKEON9PdCPFsX6W+P/DRDjbX2S6DoZoEX9nC4+wJ7hyFeoiQ+AIg4kL+2CNQe79UW81kE8NvHr2npFYHs7tzkYT3Ki8DzoU33dS3J4i6y7667o//zyyiII0fVXi58yKXfdFWWqdFteQjbuB/V4JgwJGNyNfiSEZuEHl6ni+Rv+YPwNHgMiVaABqXEGZMQ2cdcGCCnVaoNMhUfuj1566rYA2eo71PlUvi9+evMih8Jisb65+Gjxgy7iZugJAIETB0FaAk8n2F8grbfFqos7iI+5e61roAoAHRfdXY7Qe7d//iuOITKovTBZl66uT7ueRsQWlMCPFRVrfK3w7gBSrMq3EB2RXHlEB16n+bU2QPCIX5T2IGVzem9vL11Ox/oLhxcbHQiRzvWfpiLTzSG179LsTS83tGDRBT2IOzkCV8xNeL1682Xxu/Qcrbu08ubRp8WGipt8gXEpl26pTajZlgbS0cRHrpsQdhCO4GN2qB0x3S2zSENJVIkJcV0314Bsf/YakBHb5AltAEK6tU5rZp5VL1OV81uzC0OAkHZOUXqx+OHRl09oBBPsP4uPHn14czqDx2lE5ZkROI+ticHLpcoFPGEK+4IkmeLDhIM0SEdi5TLl9AYBUn919edqH47hAzUZJCsUIXKd5IQike21/SUr0M8Y64nfIUCGWjR9RV8ruqJT+yFXtgdI9FYXoIMyNhPRf57/qgGItGqfbziEULxHtp9Ww3Kw9YzuBxBXoMjJ7UZFSx1KwM3wf9Rde08a2xb/LMoxU0C43IHpOJ6AmGArMB44igitPGw0nvK0nGsN7ZV4DfGBucY0of+JRpP2/HNODH6DfrK719p7z4PHOKfR5HaZtMXKyJpZv/Xa6xFRP32ZP1l+EXOI1OVaPbI1JI4OtjWoaSl65WcTRzDFdGBOMZnCD0MxrX5ano71mKWIa8PlsCe3ZzYgI20TXJt7dr5cb6N/Lyn6EODYdde2i7V7yQAiOOSTT3CjKpKikmD4V3LX5m9/Y42Go5IiprEAzge0qDvZrNIO08TeFj3bQHy8ByFpbOzGuYgY57FO39197oGYNPqJgt7Ozoq5YZJWeMthLZ1jEr2PZ0Gir1cfZj0Mu6wRTAbWk9BDhAMMDrRZ5lzTEg/hbvYbaAc/QUhEszq8TxImaYmyNevOQwujX5yM8Eyz88Utee7L/5DcKkHLBTz3L7euBZX+Sre9KYp4UrFikMFKrVFGPT8xKr1rDj802vetuJVBUwHpLe/AVIeeoW794wTig58M6tfWyrhyJJTdNKBXkTJ2TUh8d5YDRF4j92n+ZPGrNAPqB+4a2JPnqEqIZilaAeRatqFFaWdI4iX1MtC/eg1xHHTxG+FBC5aBUZCTY5zl0k/GaKQOelTIZtnIzuZpWrT0/5UPTw2QKeUh1qvVamKI9dgmhrC9ONexBtanGeuXoB38V80ChxVtckHlsJdpl1THdwch2CJMERwAxTh/++/CgqxSN2J+/p0ooZMlCC2bY0YNAQSsrIVM00Y5zlrXaYrJRHeXsI58gI66UckcbJT9viPtgIR8d0Xah3zOxBFu2CFvyfnItaffmki7NnFZ4dfnJvw1/wrx/7h5a6l2B9THu80W7bUV5TegO06Wf5Vc5EZ5fweAzC87JRzdKkTErOd7QxBI17SbMEsT0zherg9V93ajVqZtmD5ttIuubqhbeTdLxKTcuPnaUrkepcEq+dqr50vWKaQxlu/RAOKxDkEY69R2Rnd01ls/g4b1r49hncWZb78hQkIFTTlsTTH/MplPWVpPyNJnszYAEnF8+UKe9Kc/C89LKngOAJDlioRToAhALLujjM14PNFESJHCVxuNxr5vHWkfB5RodElo9mh3d598DVD3DJpvtXTV1c1Nv3amHbHD7IfwVb9/VeueabT/eYgOzs66Jto9u7k6hpmkmgkJ2zQh8W6GA0SZogB5LS14dYDMsRtlfbf3FMGibgH3JWXCmKKkdRn0YcsrxJ3kddC+URk7KiZ3REzKtQ1Hmnp7Ah9ZAun8zEsL24WlEiNb0x8NIMWkLFjwDjo/lalmg3hIxzNFJI5KI+sT41mnoSbYT6IcOlw58JElBG/J6vmqaHFACT86viuffG4OkH9ygCy4CUD+AwA5WXwj4bgsQbQHEGOiyeuVXUv9WqPRO/j4ERNzR4gJgAVqvWmi8C+PjoG4SGv/f5xsyTyYdj7P3Dfv75vn+um8MhOqhkKhKNHJHjZCrD1Iwb9OT2EH0Dmh6+vr7e3tystnle3zkj4pS2mJNk1IrhvWAPLBBJAXFCCyNIMloBGHZzxAErBoTWRFbY5Rk15PcUCc2YCIhfs+EZI46xMYn7GbvjsiCLk5jjFPg48sAROSIo6GMEZAoBYzIns8TwqQoOKNQEHfQJ26Nrt19XDYdgpCjLJOO1CtkpV3lwQhtbIyx2JmgaYooMU/FCyJwnjOVVm2CBuLeyw5TXwDwMf87Z+SASDLU5ILDyLF1qUdgBiOutHDcqzBgs45p9eZJiTDFA5YyqQoXqe3VCq5Z1qxwmiaceq1t6UCLmh3GRY9pwuSgeANsRjulkUqFAwvWpQW+F9OfcUVMSFVeyYEZmUxgMxheHayeIgAcf5CARJhALGeM1VckldLJZy7MCwqAi7jpLNms3CAy72Mzb5epzOuIJMrUoKQq2iM61EGV48nGM2vDrVpsTJlISJ7S632yO19j5jF2qm8IryXtgKOYR0BrCeaYQ8meRNrxNi8oqy/6BtKXHkyZpD1aQ0h/fsCT/wJCpatwL0MyYMTf7GjhITaEXgcpWBq/F42TL7R/OSzT/M0H4MAOUQpePdBA8jsrp1B1WeTugGBUMGFC8NXkEp0NTv+kxBAxomlKJQUE+lggGlaASDFOB8+EInAYCidZLtkuPKc3Krs2sGHL3cW4gDxLpkAskkB4uAAsepf9XiiqZBn57DiGCUq0N6cyVADktj08upcuQSxRXxASAYKMpmYgA3xNxqviE9B9ehqh5mQYJ37WEMCshpYu+gkmk8KEDjPz1Tr0b3OlKqUqI4w8A5NW1UYjYejRQZYH8SHbwTr5PXd58aG/+arS2UmhFYhggmpsyIwVr+OvTqBrTT5FI7KUttTb1oBpM1yC+Th4JO+/d0EkAvJhZXCaqtpY5L7xPrEituww5aINhN3IwLmbJFpmwj/ln7hOSexS+MJ36MjddxPzSnSrC0TkjvLt1Q2bJLdmiVi0ghA3sOr+UWR+aI4ZmosQoLFDG6+CVNRkUsrJa8uKmq60wzTncY4/YMakNi/+n6o+Nd9cJ+WvjInPBAh32qgR7kJYYNtINP7Oi2OEJDDdjYEveuZair4lC6WJ5iFUfSw9iaVD+5crAVMplRdJc4lHf+DHZeU9QKwfnBgDj/ipoMCI0KOG+WbP1q82ibiyDLrmd9hrHNzSZSTeH3aTtRxG081HB6/SCjR5i6W/JIC5IW0sKJyNQlSwACSsTPJvduU5LmHxPL/h7Bpt2svBklQCyIYdQcBiPcnBMjyMwYQQbEESL6Kq180UUl2ztcCaaZRYddgCPM4xckAe86iIm9gH79JSMzZcrOX1Wts1LZpwAEH/czRCEaDaXW0gMBwCPhQk08LkESG7b3B7ViZcMjTPkVTmiamVGx5mjSFpZVzEnTLG7W/xfo6cbI2qSLT+iThbmZXNXOZlp996CSj9aqR8+r4PUKJHQ0gFfqkfyEAEQXd0XbJFCDhbs6OnpUCPw4+0DoVbOWvie9IAfJKdH6lAPlZcimqsMrSfS+lGZqC39qztCBVuh2Krr1hopL37CxVImnYNZhJUC3a8bI4W42F+hu7ubE5nEEhefv540a532QmxGE4BctH3E4UkPNOMl/P6AJCV9Loq8yeyMXywGIsjXcKE2JKE+3Ta3HLfZ5hm3B4Oef3sH4Au/yeiwxfCh3IACZku0U4j1SWdoL5FN5zI+fV0awPAWQbz7+WN6WFtCqwVM3iVw0gdVsAiRKAzP1IAJGllA3GJuLdJNNMPH/x7g0ChObDTxa3JRe1IIMdaoN6NFRHZAyLSqg4qa2DAQ+LOQruXg3rEAwFNWOEBKoSpo/3YXB3I8K9btZSClKSv1jamdQFJKUJCH6a+kgt+ngHheTi+TzyXtVwwnmvwq5Bzvo5Z90x06uVB1j/PIZ1uh4jDvV2F2510MdKhNvtInqSXCcYOU+FLFY1JjoMICIWFeFJ+gKxz1h3grlMl6xSgJw9uG4N99pEIFpw/hBE4hhvAABiZ2dIe4YD5LUGCVnlr95pADFPWhreegwbLYrRUaKSaVbZwr1slrVOkPv+vk+9jAeEhJ6EzMbXoWDA34/Gngl8biI7CgkajUaKygd+gFQoHy16gpNPmuZlqz2Sk4T3UN3Ee4ruGmQeVlHgrLs6N8Osz1qx7sv1/GA9mXtJi6zgKCQ8hvM6cp6cHL/2F205Te+zA+KfKECm+HHxggKCoT40yZ2Ve6zLkhzADNMPQYFALHa0bmupzl9uBhDmVL2rgHEFhwvhMkUAgnP7tzYTlluPAQB4cDOZJaIyABPYNejx0MiQSknsvt8zCsmo9JXBvYKi6Nz6xs0fMe5oeDtaQVY1NSAgdQKNLMptkDVxPx1AWKP5JJ5aBT2J/IAppeOD6bkDZb3QvPq7rB/4/LWemyGMd3rgtEbdaGicFxnnY1jnJWROYeiA2KkKsg4XZkESNgDim9iPT0k/FKX/68/ZWsvW0QDCwvI1yF8M5cOFrZ2E5X4MDyeTqFTp1kHuZrCaRuIhpcu1Cb7t1zc862JUT6YvV27UnnlFeoWtCy4l0Qz3KlBAYMMIbGvin2ikkDzu4Lhh3pkpzZAv+gG4xiZ/EOfSF2cA8WmLjkezzmtSc73GzSF7UrzICnysTJVxnhrB+Xj7AXvnnaLpgHiRAYRFJO8l3HpMAOKxk+b1Hf2PvbPvaePK4vBnMbN4DAY6GbvYEJEoaycsnkGkTUy0wQ44KiLB1FlZ8UaNawsBshPQAsoKoqgCR141G+WlIt5Vpf5VqWr3c+3c9zvjsRmPL6Cxc9pUauO4HM99fO89L7+TqVfB/DyP2ON/5OuoktLB3EL8sQ99gQDRTYDsOwOk5VJZAgf023jgHijswxO+NtgGQvuJR1qdwXFPpnELaZArkxwmgd4BIKZGTxWmBdJmhZzBjEL2f8VbKTx1zaFZajP7OMirrz6t02aGNuEr3nW4hTQek+NlXEV9zwYhV6Dn9zrwnM4tJICYE8QkpvUNAsQ4Yt10MtEWEJxrNGoesUYDVIoW1x1sIQf7FBCcGrwLkJC5eDgCZGx7ZsCZNS0VMmtwlKbRA4krNUXjFsnDhy3P4D7Ch7KugThWwJxMh2od3KnC2QI5iznpFufpqQv+KEBfHS7IQGKuVkyzwuVqa9ePmOvGAqxX8QgXlpMyrj8Dox16TlUBltW7lgTxMABk+muSFYGNDnp5yyEgmaynLBTKO7mD+A5eo3pxmRWXLA4bh10uHg4TRq0VdNreS0b5c85fB0iTjr7453qFXyQtrufkDI4vs+lS/S2pzieJGThneqrT9XFmgDR9R+AZtKDe+S5y/T/1ig+7rrR1PUWnx4ALmHEJIR0cYyhgQibDd+Q5BwjaQYZMCWLU9ADz6rCMWz91HiEuySjlQ94yqAhxumOFlSQGhJQnhhMAEC4eDgFRjZvh1OhAx0aE4uCYtZukvEEuH4cqraSMbc7gRBVSyWXHwpZVMjrgYoGcMSCc7yjUyqrL1cTbPPpuaOv6Q4vr61omd2eMPKrtOTpWoWM0MCD7y6pkkyAO48KTB+BGAgHZdrSDgDNWxlMGux1P96y0Rj91XOA+kRgmfZg4Hk4BGejOWHlD+CrIlJl6+SfbXT9IKUo6lFsb0tkqcW3nAoht8awUzB47cH3S4rqxABuzJJ5iL1jSGSC7E6jTjMQrcYI4rqPSxe8JIKvPnQDiU9bTpayHto9QtpT2OThhFUuBZXLEIi1SCBC+fQp+jrNdPxSYTEYPZTqvrCutSvSazuDcSZdbJQuutrSLAYQrfYpnwNlX6dj1Um2LlM0td/8sZgYjqin/hRPEXPH7PAJk1knNEprB7HPa6X3xpqX5Los2gBRl/EHJVx/A746vVyEgXH51AmrBC3gocyQ5pa9ezqXhObx1iZ7pDM6tki+wjER3W9q5A2L6bnDjuqbUlkjRAw5xdwXI/YhsqqBACWLjpkTbpyAg6vygI0CAT4pv3SsGN2UnPKeUOD3Tf48211uJYaAGwuLhaAcR8a1FAQnO5uExwz7G2XwGZ6uk8YSWxnTzA50/IHgH0ZP3M5rPheu+dONeIoC+GyZ2u38WKwSQJG2yNQ7Tcly6BgF5lhiHraRqcsVR4wRGxFvmRMtIi1BAPkJAXgTHISCsxhPGw4U8FCIAogf/Har4NBzjtDN4/dBsNsY6rR1b9iYg84PZtIZcH2nlelGzsUpdKCBrGBDZlCCW43EMyPg4jP+rY846i3rUtFIlSeWRICBvXkTHo7DhgsbDxQGyPUQBySiglx+28h9Zfhn/GDlMlYopG1tvjAo5iF8gIJfzpVKpUCVt2labPCwUSnam1B6LBOQO+WLECeK/qBAQKfwMAPLmGgFkOVAq9jUgqxIvi3XtzZvh8agqN8XD1chrATsIAWR1YWe9WDx8OGlvBh8ppWhn6ZzHAVGHBrVqtTp5+6SFTSI1g2Y7PJ4hrncPyCjRruYSxIsgQWwsAwTI9fEgeu5qqq8BqUZlCsgbDhAuHo50f9pLvXYGiBwP62B8T0vNGl1qVYapx+OqlwGRpEiwXI6WV1tatNzCokmigSEAkCWdAsIliI2Pln1PBtFzjxdTfQ0I1a4me+v16wAQEg//iOPhp6lXdwQIwDESCZt678MOG/HJNBOPAsKNKe3ciOS6CECIdjXTr0lAQNhJGwESjmgOAPHiNcXJz8ykeWWJ3s6uR0EfJ4qHv6CAhKcF7iCuV4nKTa74DEgX/jPtaqqAlgCNDSxWk0CAxJNpB62pyrrmNfMpDiK9nDQvi+8ZgEgsHp4Yn0eABObE7SACzLNHLAGudw8Ip1099AABMg/yXxSQf91KwE46WVp1oF6tKKUdj9kBGCVwajEWJ83LiECAsHg4BkSfG/0MSK8AwmlXmxLEEvevUR22kjpRr9YKI7M/ecxSx6XCqQXvWoFI8/JnqqDOn7jGYbkvaUL4DEhvAEKLJ80JYonbUJAgmiP1aqBq4jV7W0fTSxxK8/K3cggIvbOjeDgQ5x0VeQdRbY1OvpVavED1/h1Eb2EqcV1t/wIhgFBpXnOCWGJXkkUEiCNx3vTO7S+vrnrJ5oH8vBNAviWAcHFdCAiL+mJA2onzuopi2RpR7ZTjvRnFMhxr8chukXHccviW/QsisrgdhHYeSKYEscSCWhSQIyeAPPoyet1DNjzsDJD0wW0CCJcZxICY4+HtxXk7zoME7E8PAUyIGpbsh18EPJ4HkePxjf2nNra7IYdV5Lq+sWv3gufTEVUYIKz83pQgllROlFlyDIh28N1i5KqXbMIRIArTruZrS8BYM1Z5gsN97cR5O8+kP6/bd7Hk9mFIQAqUrzRCNr8fqg9EvV1qktyt1W2t9g0q5NeHp+xfUXtcFlZqwrSrudQ5AoSJMkNA9PJ3DgApHAYDupcsUHa2gwBp3mYFSp0/mp4FIMGNWt7WGruoRR40rWdsfj9Tm/J6LdZKLmPXwpOtbyP09fJW3a71KCuymnfuxrJtgtgAhIkyy7JTcV6QLhAWgzgXUxMOASH1PXx9OxxLzoIbGJB26tUdAzJbt2+lrw8SQO41siG7F9zsXUDwDlK+QQExuS4UENrAZU4QSyoTZR7GO8i3zgBRvUSIrI47u6TvLNEJbLwCpSk8jgBpK87rApCQ7QZRZztII2v3ilovAGLreuMrsoPcoK7nOMvXRAJCGrgsCWJJZaLMBBAHGra9C8gBPbGwHltQW8J14C6ijGp7cV4XgBzbWY4HJAv+SzbL13z/Vh8gB3HvApI/LjV7XsovsB0klEWv4ObGa9XcFZGA0KABayGEgFhFmaF6tdK/gDyhgFzmFCh5DQcc7pMntoQCkilW0s1WwCpEAJBQyXiFLz3JF4M/Ci31ACApw7GK9a8ClvADgGSOjVcolRHO84ePjh8vCgOENndaEsSSSZQZybs7EOftYUC2SFCI6fxgQIgKEB4x1Va92g0gKc2mCfLgdZIBUkgraKIOs5P8sx4ApGTjuu/ABEhaKYGeXG407En2bABhMiYIECbKDAPqenmmrwHBN0OLAiXfJkAAGfvbmQPCdOwwIERysdcAsXkumgUQi6Sc4fqOMEBGp4xHodoliKUmUWa9vLTTx5f0g+cEEE5rFAFClUjxiKll8YC0FnpEgBQtuoN9BIhy2OS6OEA4aV5LgliyDik0fpypPo5i+Q5mV4mKDi+wZ9KyJoBsnzMgmWOr7mAfAWKVlBMLyMDMxpAq2SSIJeuQQuPHedIxILIkXxJkgUBA1FvxA8qdA7I7r5sVKJ8iQLhpCHgG29j2zPkCkq+cWHQH+waQ/G8nFkk50YAQaV5Lgpg/akNJTUmPbnW+g8jhHwXZhw8fRL1VWHazg+AFabqcTejmeTpoBxlaOG9AqidNU5H7CRCr66IBsUsQ88EaJKmpB3/qfAeJBz4Jsj/++8en/4l5q5XwpY4BUQprSYsC5QoGhJvI3qvrKQAAIABJREFUhorWXKpXd7uD9C8gI2cJCJXmjfAT2Ezh/mE0gy240DEglyZW3v3y6p8C7IefX/78g5C3evXu04+dA1IsTVOR7684BUqwo7CZnvDsJkC92gUglkXSt4CAcenZMwGEG0o4pJsTxhOOxXmbALnzLvbLq+5tc+/9+/d7sV8FvNXve64ASakEEOPOQUoMjLOnaSo0TBgJ0B7tDhB4H+lPQKDrt4UC8pqWzpsSxKaSIzRian7fBSDT72J73S/rmH/v5fuXe5t7v3fPR8zdDlKUiHY1V6QWVs1jI2DC6KIBQarOR/WP/QcIdl1kqQmR5jUliIEAmnVIoaTOv3YFiN/f9bKOxTYRIP7YZrd8vPO7AiTlC1P9sL9zCpTmcB8GZP8iAcHzdNZzA94vVuwQEOy6JhSQNQKINUHMRbWQpGbSgTiv3Q7i98f8m/5Nt+bfjBl/HgES88fA312ZK0C0VHoiblGglJDAHj+6DsbDRTwV94Ag1fNKqpL72G+AgBEJQMu7IhSQaRz05L8I4Vhb65BCdXm65A6Q7tc02UG6x8PA1RUgpUpSsihQhpHAnmoZUmgcTgcvDhC4SCbTKV//AYLmTa2nFKGAEGlea4LYlFkfQurVDsR5W+0g/i7gAH+Y7SD+7sw1IFU2GNKsQEnOpmQGm/HJ3T8XQJI2gKChS0rRp/QbIHjeVBG6Lg6Q0TkizWtJEEtNQwrVyN2iS0C6NgaIAHMJCJHmtShQsvDfAk4YCVCvPg0QxafYAYIWCRp326uAgDpNG0DIvCkFui4QkCU9LtsliKVmUeZwXEn1LSCFQwqIWYGSxcP/hOPhAtSrTwEETH2t4LwMBwi/SHoVEDDQs7qLvhs4QPhJv2IBodK8/AQ2BAjrD0GSmvFlLaX1MSCqrQKlKR6OdpDwnbMFBE59PVqzAkIWCRoU2ZOAwIGek0f7VkBgZIJM+hUKCJPmxRUT10iCmJegxYD8n7zz/4njuAL433K+2lfqBTYHCnCVlTiQWvWdC4kNLuauhoiTdTYhFhH+0tWha4zuMOAIWeV+qIQT9UsaKlFZqiKkKr+k6h/W3Z1vb97M3s6xc2d1d00UKTEnxp7Pzsx7bz5vMV7Om15AuLtaSItDwR4rYtv7dJ3GwwN79ejgAAkmSc7fSGFAWAyHTBJ/lqQvzEsbenbxCkKO52UxdHuArApA5ARxXmlSWMhfzTIgJQwINVCKcN9vOCCV1cEBEkySmj8dMCBkktCeyD5D7c3RtCUKaUNPRwGERybo0LcsAnKNu6tHpASxJGUmSs3CdCe7gBxzdzUyUErhPgJIcnt1NCDhJAkuD6orCI3hkD1Y1ZlIW6lJMPTwXhgGJIxMVMXQGxbvpAN39ci6lCCGUmaqszGQ86YXEO6uRgZKHxCpB1vBhr06EhA+SRx1BSHHc7pRP7mTtlqsIDLRJUNXVhA+dP+Pp3VisxYLuKtRghhKmQkgxQwDUjv+kAMyKRkogx3Va7lJYXJ7dRQgYpKoKwjrGU436mkrVgyWhqCXqaMC0qCRCboHc2yWu68u1Av6BLEqZTaR86YXkC8UQN7/mABCw30iHp7cXh0BSBi+apAbdAgQhx/PyUY9bdW84arIhi4DIg09WF5tAjLP3dU8QTxD8l+qlLm4U8oqIG7tgAMyBw2USCg2YknOqwcEThJlBanJkyRdgNBVseQ4mhXkJFelx3OyvNoFZHdGlyAu5DVS5srO8+PMriCBuzqvM1BqerAll/PqAJEniQxIp+F50iRxUgUIWxXptXsJkHIJHM/J68MuIGMiQfwaJoihlHmaAvLbDAMyz1cQ2UAJAHmfAlKYGQAgaJJIgKz9p8YnCdmD+bNkLTWA8MgEGzoAZK1Jhu7y5dUyIOt8i/WB6MBGAAFNCovEPfrhcXajWKOoRSHtwCbHw29bslergOBJIgEy8abmkklSzZXIJHHebi2nBBCxKrKhQ0Do0OnySoduLw8i1Lw8QczyX1DKXORy3swCssC3WLKBUtOkMLm9WjUr4kkiA7LNXrS1YI0JU+qdVMirmzU6dKg1UgHhy2uYLbUprwaA1HmCmOmdkJTZxF7dG5D+bnOA0nYFkP4uhgS/PSkguwwQZKCUwn0UkPqvbAPCYpzi9pwCCE8hkpR6KzW1WCJyFwWIyA6F2dKaRUCEmhfmv+gZBEmZTezVMStIXyvAbM8VZPZin3RhQB5fZf1zZAMl+JObZhnVxPZqDAgMX0UAErxowSTx0lKsyLZOcOjqCkKzQ2HK0GtbBWSxEJEgLqAmhUb26rgV5MWLQ8PnxYteK4j/X3p80n/xR80mB2SfAyIbKPna+x0P9yW3VyNAajB8FbmCwEnipuZGoRSZ0AMiIhNhttRiseIoUPOiDmwaKXNlZ/kg2SHdn+ePTJ+tnw57brEOv58w/KSJ7w8tbLHoJR1hoFzngPDTG28xZRkQT50kGBA0SVJzoxBbuTWAiMhEcBffbrl7CEhe6sDGE8RQylwgK8jCcVJAZrcMn7XNOEDebK4ZftKb5IAIdzU2UGqaFCaX88qANDWTBANSbbFJQvLKKQFku6sbugxIWNzssLv4lsvdA3c16sDGEsRAyvwLusXatQDImtFjAsgW6H48Ib5xDTVFntiyAsjlpYrWQCllkKYHAUhg3lUmiQxI06vxGE54LSIlgGzqhy4B4vHIBKl4twzIrXrxnj5BjKXM/l/W4+SATEzoGveKZ814i/VmizV39f8lvu8R6no68WjLwhbL3X6wqDdQgnDf2P2g+2l49yyhnFcG5ETZX5VwHqTjOHCSpGUF2ew2kJUb12LRzg/8Lr71FeSIuatBgpiWXkEpc6h3v7qfGJArrVY5+qmV/S0nfc5/jAHk1WmNf1/OPXkbftfbRqdVQx96+soGIBtjegMl1JzQcF9yOa8CCPKX+/9IV27L9GI2K/vOpWoFQVZV50RzJ92Rhm4REKbmVRPEUMpMerA9fJkcELfXROS13P5jAIjwggZBULILbaleCRuAeM279aLWQAnroAkggUHJ6haLDA6pE9uXF+X2B3CSpAkQdeitFdlq4oi7+PYBucwAAbcaQkAkKTMFJN5eHQ8I2SbqHhqIIY8RIPT7eP9KcqUOf6wVQKpF5jBGBkp4k4atIInlvL0AoW6GA6z9EdciUgsIGzrS/oC7+PYB+WyKtQfBCWJFylxZ+toCIBETURTTEMOT6QoCigzAC1T6kWwAUvXmpvQGSukuJkkYDRQQphbFXix/ktT4JEknIDRI5yleLLJxAEO3CAhzVysJYrUHW3HxwbYZIOIxBQTUSTj9AAKKDPiVOoMtFvgRKztGgJSnIgyU0m1+Ckjyv5ZIQLhaFAPSYNciUgsIU4sqZkV+F38QgGxwQISb47YEiHDOjsXbqwNAKmL6VSbNAFFq8QwBAfljuMrGriD5Of7kbxoAUm7WFueQgfKXtLEQ9MGQhNEAAaECj6ri5pUnSQoBEWpRDAjaOFgGhLmrod2JAoKbFBbrd5tePCD3Z0b4U59+zwAQVxSkCQez0RlEfB/XIhmsIH/9W6XPFaTcbD/MsxWExC4+vcwBAUYxsoJMfTsYQIRaVOlRiHaXqQNEWCMVQDrq0K0BMirc1cwPyBLEspSZyHnj7dXl5slnK+L5w8uV2VhAwPEDvCkNACnnvBzjQ36B9l5Bri9f3+PP9fVXJoB0rhYkwR43UMpOyhCQ5HJePSBALYoB6Tblt0PaAIFqUQSIbugWAakwQGZQghhKmZlzNu9VYwHpnP3lNXjmr8QBAo/ZTn+A0CKDqOO5fgWZ9QHZ2+NfpoAwNS/Mn05VsNU4X7Qi59UCAtWiqE96s4WGnzJAWGQiHDrqk64buj1AVovMXQ1wGKlgZAggk5O5WHt1tfPl2dko/3V2KQ4QXqaNWs0ZAMKP9VHH8/Dzy6fPECB7o3tne8vh19ny3hMTQIS7GhsoZS9+GO4rTN4YACDooAUBIeXu6QVE3kMjQHRDtwcIc1erCWJp00WNgfVarFrRB2TvzJ949NdyHCDBMaKr4cMEEBq+4q+WiOiY+y+8goyGmyuyguwZrSBAzctqOKmBUo5rUUB+Pm8dEBbDYe4SGMUiNwpTCwhSi+YOhgcId1fj/FdeJ2XOP2ybAOJv8FfZ195yT0CC+ZuTj+fshRELyDPKVaNU68lH+/z54RVli9XnGQQCIhsoNU0KC5OV+VG7gJSQWtSt1m7UswFICalFXa+t3kkfFCCrl+ZYcGZMBUQEfseovTpWzluudtbP/GeBfi0s9AKEHT/kgjQyF057FyteOfwBvVoiosf+MvMcHdL/uP9kfHz8SfD1ZHz9yCSKtc3VvLywhBooNT3YCnNJ7dWaWixYbRQEt082sgKIPPSg88MQAWFqXjVBLKUOadHRTjwgzc7RJ+BZ+XePKFbU8SMMZZ7+GAPI83MHvlq0fITbN7SCXPnHn/Z/Jp7x35sAItS84ibyTQbIzBGrzmKAJJXzaqp5xUGLBLe7DzICCKihodqW7jABmcpHJIil4pMRU3u1D8hX4+DZH48GhJgINHwEL4ycCSA9w1ds+6YDBPyET8wA+VwA8qVkoEQ92IpW5LzqCgI6f5AbdN3MrCANqBatlRrOMAFZmLnHwvt/lxPEUvniiKmc1wfklhkg4fFZPX6wF0bZABCpPC8qeqwHRCwgRoDUju8ogIwRf5h0Q4Q2KfQBWbULiGgPw9w+mQEkbHrC3Fek88MQAWFq3jwsbqeAgAL4pf4AEdMvEhDWBwYfP9jFSZMVpFHqFb5i2zc7gHwhziCygVK+YzhDVXLX7AICYzj+sBolJyuANKTIRKehXpgaKCDzTz/QJIinKvgK1RJ1j5ZsAcL/okvq8dytBv87HhC5PE9XvEK2b8kBcUM1L1tBhIGS/tmBW+pTduzVCJC3IIbDas+ysoJIkYmGIq8eNCC7dV2CuJjXSpkN7NWGgKiiQLmJsdEK0o2sLgn7qPDiFRsryMGvmTcOGyiB54T3YEtsr0aAyJOEuBm6D7KQB+myQhLg9ml0by29C0CEomESAcKcs5Wdz60AoilOxJVGsYDMHn506sYcP2jxigVAygerfAVhXSGogVI2ZdEC+LpNQNZqnqtMEqf5dQYA2aq6onMUfeM1nO2VoSUK5x8LuTuX/DBAhAiIKjUrO3fi5LwmgKC7Ufh4Tmd9LCDPTmOPH+TzrQByja0g2ECpjYfXE8p5NW5eqaazUWodoFKTdALS5Gpqrt49cYeYSQdqXpYgvkfTwZomhQb2arMtlnQ3SrotRvlw3fJpH3fSleOHtH2zAcjxUx0gNLk+iZsUFmZ2bQLilZVJ4nnbWSg1Qe0P6BZjiLVY8/tjuAPb3H0OCO7BFsp53YSAeLrjBz2es0N3uKJeDBBd7bwNQHanGSDIQCn73pnnZNfyCqJMEqVYMb2ASFbVTtUdZrGicFerCWJFypw3sFcbrCARxw9xPCeT4fxCgOhq589/sADIP5maNw86sBWljiGveZPCQn3d+hZLniS57AAiunfSstQhAnKN/0VoEsTgOMp7sM0nP6Qr73fleE7OEBcCRBsdc2wAsnI1ogObLh6eWM6raX/gdaFaNEOAiM5RNEM2PECgu5oDMsLyX1DKPE1/oEsHCQGZVe9G4eM5neQXAEQbHSvZWEFawl09V1ABwfFw64Dw9gcipZ4VQEBkgm7Bh7qCfMXc1aDhmgBEblLo/0BPk64gsx3N8UO6CEQn+QUA0R0/wkRhckByx0dLjIb3ZAOl3INtyY6cV2l/QK9OgtrlrAAiRSaGfmEqUPNGJoihlDn8XZXp3cSAnGuP50G5Tc6VJnnfgOiv7vofbyGKxaejaqCUw320IcKiXUCEn1nUZmYEEE+KTLi5dwCInCB+LRLEUMpcNLRXmwCiHs9P4PGcTPK+AYlMzjfOP0L3QfoHxN3eWIwwUJJohtykMJTzjloDpNlVJklWANnuqtKzoQJyxMyj/EQ+zfNfQsrMAdm3soL0OJ6LWGZ/gEQk58PVyXuWHJDmjXqEgVITD88ntlf7gBRR+4OwMWfVBWuayIOsKYCkpYEOH3q7qjYz4h2mlKHbA4S7qzX5LyhlJv0PHr48btkERPZ0yAHv9k99ABJ1/Ag37Yr2p39AvGqFA3IDGSj9Pxr+crnJra3Jt1h5UM0bDKfRaHtAWr/NV5Df/flRs62Y8tubPPn/fwdIXmp/4NDIxDsB5NuporxN+O5jAIiQMhNAlo7i5Lx9AaIez0XAu9NPJl0UgeuCxzYA8e5xh/EGMlDC7enN28T7nVTO6wNSqRT9r7tLn3zzTfuk+z/2zvenbSQNwH8LSS8GUuciK9RxV1lyl2SRIVGyRwOE0iSqNkJCQc321KsoKrpdUBFBgkoVK/XDCXT34Q4+HOodp6o6Cfak3v9149jzy57EHnucM13eVq1UWybT+PHMOzN+XhD7h4cnhzieVzqTxhlzO/nTfzwnj5jx4rQ5vawMrnLbADE+c7k82Xl1ejphNP1P+yeHJ0Q8/3t90jhjORk7/fPzFyf2eH2a31k2TlDKalBAkJqXsUBMSplNpebSmUhAbOk5PeG9zQHI0PTDHLkKAGQtXUQGSmtv+3ckIHQNNjCoeRsUEC2+tAhiKTvb6x+dGXFwUDmo4OgvZc0zSsu9Pn3IiINKTymZJ8TV2wWImllMGjENANdmNU2bXV3NFDM4yslp43g2WVpcXo1Th4woZpZnS+AoCFV9JQwQ5wIxKbgxAamvu8l5vQPCSM/xhHd62/terPTEsL3B1sg1OCALawudos1A+WtooKSmyC1Agu9wSGZL04OYnxkSD6ataA05Yd48XMomf7xVgCTNz52dLs3MtFrz8/OtFvibjBJs+oOZGduhQYD/m6x1RlBA5iAgjAViUpFmOmdT3deiAGGk52jCeyCf9QrIsFcT8ZqaAEBev6kXhxkoB/Ph5lh0qZWFUsqAC7iPW1krkovm8zS5aIssOmNjkRlJeELrNvUg+r0WbtmQcD0BNz2gBFZfhiMHtF2CAMQhZe5MutmrvQLCSM9tE97n3uuDMNMPvKYmBJDF+DADJTEfPmtN9ynq02ALuM2jGXwXBI1k66yZuy2A5JoVkU2fV5pBvgjsrjYWiOGGuyQC5Ae6SKGiSttiAHGk59RWvAkPr9yi+iDp4WYU+OqVAED2s/DdfViBjQKELlIY2F6da663BnfJdOBfA0C6tw+QaTFtn18N9EXI7XIRAmKtf2FAKCmzZQwsptdEAEJpNG1vykFqzj2VP8CblFjpeZptd+cHBKl5nRXYqFcFECDc9mo5xMfozBEFiBxpQPTHQjvPbjPmu+mGmhe6q6XMpGOBmCFlVhfWhKykU+m5JXqyUeOtB2GlH7ZXEyfEAKLQgj1soCTmw1chINz2atl2l/Tns+LiQYVetpQjBQj4NDKKRkzvlUooCQ8YpdI8SNIb6OrchGA1r7MCG+2Ss4yBdTc5rydAHOn5E/t+NK89iDP9uO+opiOkB0GVF9F/CjJQGoD8wZwPL1sLRoa9mu8ujFV1IqrNfrbUEhWlbKVJXL4ak+XoAAI+S7XabuDQ73VmhT0aZqee6sS1qw1OQhiAfIOm951FCj3Yq71tVqTSc5xkU5pED4AMNaPQul4RgDyE7mqngdLYm4iEFxAQPns1uEn2zrpEzE32ay9FRa23vkxcul+N1hCr2ltWiIgrexQwQaJdlSsZfOniV23OwR92V5PqGgSIvQabJGX3RfQgtvScXYTTSw8y1IxC+oBE9CAn0F2NEjNsoMTKpN91rQUjqajw2avbtc6UiiKjTe3pVWHR1htKPYOuXeczroQNSDvX0XDFyGJGe6mDkZaoaDff1lFByvgG72s62F3NWCDGEzZ/hUpNd3u1F0CIAdCIIpzuVpM/3melH05drwhAkLsaCvawgZJVg43XXl3dS5FlE9VKM9BeR0fiu9dBhVWVFJ9xJXRAaipRFVkJujeEcYvji6e4AakhdzWxQLyBAPmKLlIoKa72ag+AEInGqCKcruK43350iBkfsqrpCOlB8hiQH2wGShoaCxBOe/VAIi6twtLtqcfBdss7Lv9Ss15hMEZ/7Ugl6XJ7UpWsu9B4UL8V2/QGHCQBQDJSg3eIVdMk2wLxt2h6n5QyW85ZdzmvOyB0ek7uLqE1oh7LHzjSc2c1neCAEO5qcjhl7V9kFCmMF2N85ji9MkXeJWfNmMAuJNfsdxAgU309FqUkPaYbbjbU9KJSrYrsQZo93PQUZ9MNNS9yVzsqsNFSZtiDPAwMyD57d4mjioErIP/66JqeC+pB0qS72mGgZM2Hc8p55VijAZ5vcLgrSVq/qYuLZs0qtAd+gsa7QhP+Ooh+1iEeDtqv2gKbru8VUdPVLnfdL+SuJvMNBAgpZZ6Fct5ggCQSb+jpq/tDi9R6AeS+wxzEqqYjoAch3NUOAyWrSGFc5bNXG89Rsgspak8f94VFJWPCtwq+bA1kINEaYlnjS7hpVtLiR6+OBMWrddV67oAfMMvbdELNy1ogZkiZyzsrJwF7kO20Mz1nVvngA4SdnovKQUh3NVoUhII91nz4qsYt59XXNdSFgB+jTqVERacTt24SMMCq6FFbSQcPh4M67j3B00HVhIVqXHDVbPpbnXslvfodAoT4jlOoB8FSZlOp6W6v9l7+gBA9MYtwcgHCTs/FzWIdNhwlCosEII4ihVLnJR8gMujNNfI5KjaMG2+QoXOnqePYatJolzMkIYq4wE0fFDXiBqSH6+c41r8YUmZ3e7U3QPDLUaRw1D8g2CrGuM2FzGLVduwbE5GB0jYfbgIyy2uvlm15elwsHzBD73E/RcMHxJanhxG+MnQSECrPRIBk7EUKB/bqdPDyB9YeKvvuEr+AjOJM0DrI3o5jazs0ULKKFEodfjkvmaeHdJNoPjYZj2WzIpWnh9J0/u2j5otrKUlyzFRqEBCHlNldzuu1/MEb1u4Sf4CMSM/F9SC9pOPlKCjYo+fIrRVVfkBsebr4mwR80yp/mjoOQGRzxVoKse3xjo+mG4DUbRXYvl8nAcFS5iVLI6ELAMS+u2TIbe0OyEMzRhe7FdOD9JPlYQZKepVVs9SKftyjRJ4eylPUcK3IUexBqDw9nKZX/DSdUPMqU9/aF4iZRQobh8GT9LRRvmMgsjF2lyz4BgSlIMY02MKwENODIDWv00BJ79NRfct5jTxdDe05amToSsPHixrjeR+kUS2HNr4cZOiNho8OhAQELhDP4QViUsq8aPUguaDTvOcgfvpoxk/nJ+fD4z/Ebc0C5J8fP3q6zvn53wJbTU4qG+VhBkrWfDhICfl7kEGersRDIQRcVPGRoY8LEND07+qKFEbbB5uw6n4ydHODAzKP3kMGkwwCBEuZNzzaq0cDAuLGc3ymyHIAUvj5vzB+dotd6jP4AeQIGUwcBkpCJvcNAYifnLDRVqbKihRGKOW6v9eAx9ODGA+HpFJWwoiystH1uX2FcFfDd34UAhBCymwBku0FA6SQ+Lfn+DQKEPBPn7xfqhAUkBfr9aEGSkJH+ntUg23qsQ/3qFz7+utMsqOGEZ1st+lnlDEuQHL6SmVxox5GbCTPnsm+OhDSXc1YICalzFaJKVc5rxsghXfv3n3y9OvdzUhACoXPxkmf4B8jLxUUkPSLbspmoPwNCQjxvnIqgL1arulbj3pnyyHE3NO9lXxNjjAg1ZWtZu/gxwPx0W9sbfpqOgDkFXJXMxaInVLmcvJAACAew70H8XypREBAtl8vwyeJ00BJl0SYCmCvBoBsbm5trYQR4LLPclEGpL2ZBx8ylFjZfJTz2YMgdzU21+D1L0LKDAHZqJxMBAMk4TV2Ey6AJHY9R9AeZHtNQQ5jwkBZRoDgojrmgpE/OS8YZ2zmH+XDiUebkQck/yikyOdjPgFB7mpqgRh+74SU2QJk6SgQICC15ojEiFks7ksFAmRtOz7cQElZ98wSUz7lvHKtuZIPLcBjVI50DhJi0zf9AoLUvKwFYmcNNqV+FrAHSXCEWw8CIUm4/g46xFqbyAw3UDKKFMYV7a2/HmRlM7RYeRblHCTWyIfZ9JzPHKSLAGEsEJP/CAHpvkgHm+b1FwxA/Ac3IAuvn3SQYE+xGyhtRQqVAPZqMNDQm2GF7m8cPiZxnBzLNdohRbXtMwWJ6XPwwYg7C2L9i+hWLOdsZ85FzvuFAvJmKS459qcRgNjnwxX1zN+iQ64WWhg3SYR7EEBIeCH7nObFal7mAjFDylxe+0UCsp+MS44dzgQgeLrPBMSfnFcmFINhRCzCQ6yQ2+6r6TF5sAHGPmGVJXIQW5FCRY1vjwWQgi0LsQNS8JHSBAIEqnlZBkrGfLjP3dVRjHGXP4hU29tIzctcICalzJYxMDOxFj4gRlZ9cXx8jLNrGhDz+EXBJyH8gGB3NfmW5SICRLIVKfQh570DJIptb0gEIHAUTQKCpcyW76nzZG0hbEAKicJx4ebq6gb8ZSFAATI4/vmGOBw6IEjNyzJQ4gHqX5IIkMnqHSC3Pgg1L0ozH5RIQLCU2VRqxt3s1QIAAXf9xfvLaxCXVxABEpBC4qIwOH75IXHsh5BggGDTyxIBiK1IIbe9+g6QKAah5i2SC8ToeyccUJYWI7kfNiAGHx+uLwdx/eHY0YMAPhKX5vHryxs/hPgA5CFS86qOCmzmdB9dpFAqcvoL7wCJJCBYzctcICYtgpZcaCd0QBKJ4/cWHwCB9yYBVA9ycQmPX1/uXvATwg8I4a4mbJMEIHC6L2UVKZSKSuMOkC8KEPzyIAGIQ8osucl5AwMCOojPiA+AwO5gkIUBKSSOr/Bx0MWMY4h1sokBcRooCUA0a7qPW857B0gkAalp8VELxJSUWfFkrxbQgxAdCCDg6tiegxxf2gAKHZAnyF1NGShTBCDQBTSDAIndAXL7AUFqXuYCMaNIoau9WgQgH0gAPtgBKexeEnF9czG1FdbwAAAgAElEQVQOQJ4hQBgGSlaRQm579R0gEQys5mUvEDulzK726jEAQo7AQA8TPiBprOZlGigH8+HmdB+aD+e0V98BEk1AkJqXuUDMKFJY3tk6GS8g7x2AJMbfgxiAxIcaKCmjNQRErf2CAflC+Mi191KjFogZUmZXe7UIQK6uaQAK/+8cZOF/7J3vb9pIGsdf7D9xbx1KXCBLvQRjjNXSCtxcwTTdpHW3XUgalCpKYFMld6SqOVAaqiQ9qguK5OTNpa1aadsqut7tD6l5UXXb1f5hN2MbbBMCjAez4ORLRCrMemPPfOaZZ57x88iTev2c4xko4XKfXqRQDRiR7MM7F50hdEBGJp2hezMGC6IFiOdNgBwrUiiUL7dPztuDVaxYzND//7vfvIpV2fntk9HAVPqwzFsdKbeoHc8a5qLqeviKvh7OjszYt3O9v7qICsiThw7Rje8Zsk2AWF+yadRgU5Lz2hworOx81uMgO/uxSjMg+z/pcZDDvgCi566ur3wbM1Dqy32G9fB46mnKGXqaRwXEx/vCjpBXrOfpahkgNiVlZjVALlXb5yDsASCx/c9wIwncTfJ5v750ZQTk8KdPn1Q+jvb7A8iTsOA6MQMltCuPzUUKwTeneW/ZES8f/RUiIKzIRh0hfz2HoilA7DEAkjUXKXR1zF7dk60m+/uHv0IAfj3U13Z1QMDh/d+UvVjg+H6sL5H0Ru5q6G00Z6A0eCYcXU95EWCirCPEBBOogEyLzuAj6jEA0iJAbErKXC8xNWk/IJVD0PH3tbfD0eZIunb46Eg5XukLIHru6hYZKFvUYIN31OOQXsIiW5AlvwMBaREgNiVlrgMyUrV9Ny+EAUJwCN+PlJw9pkChdlhhaKcfq1jrhtzV9YhHwASIYbmvDgjjkF7CMvRfkC2IxxkSASBtAsSmhx/82hTrht3LvDFoIxQ4IAaHai4tgwUxH66Mxuy3IIRcE5tLFLr0BHsQkKYabHDImRaXnCAxigyIGHWIDxINki2GwKjBgtx+bSpSCAB5Itu/3X10VLUf4C12fLNirKIfHq30wwch5JdicwZKQwU2JctPEyBq6Ugn6K7AowKyIDlDXG0iTrYJEJvi6x4t9+h7uQ8PTI1WdpT+v1PRADBF0rXDh+DwaKwfz4NQeu7qVhkoTS5cvQZbfCFVc4ZSga+QAeGcodrt+gOFLQPEpqTMnu6yV/cCEAUB4HrEKgoAzYCoh+tvsX4AUmrkrm6VgbKpSKH2QEhecjtDUhwZELdTLv28bkHUAPGUMUAMN8HvmpMyC0tPZfufSVcyJjb+deyR2/phc3ZSGwEpls7rWfCPZ6A0h5G0GmzxiZozOgknudAB4ZwCiIs8/mgUYwDkG3MNNgBITe5D2p+YIaloq6wmzYftBiRNNnIY31cBgQn2dEC01QwdEHDrJqQzQIYeEKEJEHP8q/Eg7utGFc+A+LIfgAxY4rg0FdcT7Ck+yO4Vnvfq9cKgqf1RK5Qe1QC5fQaIcwBxBfwb6oIumzACQrL/gd1hqrHHN3BroUCdPkCSTAMQZdfVNrgjXqMFIaPwRm2v5LWA0RkgDrMgpBoz370S4vm4ARBl55Gy+KsB4s+XTh0gydLmrbg5NLQCLG3j2X34cTQ1dWV7d5cP1adYrjNAHABIoBESdLHbr7cVEnhDpVEyKOzubv84tZTQtjAG7p9vn73aoYAsNUYS0j+/srtyHdwnfVMnLM4avboytbJAh7XxhXSdPwNk6C+dawDiItns1NTKP4AB8QnGAtP+2tRfVyQ6HGIVaxNgAulTCMhWuDFqkHHm3PabEO+FJJCGStzM43kBYKOVnSJdwhkgDgKEhIRc3QiFvCFGMMytXeT9hccuMN/m1Q/JYJxKn0JAyqR+o+J+JpTgQ/6Aoe49CW3wEs3zIW33zhkgjgCE1BO5g9k16wPt7hGMRdjhpNsfCvGhqKBlr2aSpw+Qwl4986iCAhkQoj5WMFerd4FP42Evq2FDugLWALG7a3EDCcjAXXUzIFoLu0RGMA6McM5NCoInXO8OZLxDct7e1ig8GRDL1Q4tAXKgA6IQAu5JwGW8T6oNCegfk65vJM5SS9q8vwi97/YBEHDVtu6WkawRwrlJ42xKaeHmdldaXgjo7b6EAwjo18+6VqV9nXSUM+FakIgBEFf9DpHN2/rI+o9qQTjOEh/ufH7BtlfejdxX+gAIuOoFMmCfyLw1Qjj3sVHwhHbX38kO2as7WpCjrmXC4bgFqXRxio8f1d8VTAvSSM1ruCXk8Y2vho/BsMJZahMuDCa0dokP+biBtCCcNxGyUbxVC9Kymdu2e6fs1R0AeXa03K1efXnWHpC5rs/0/BkeIPJ3TYB0c8+sASJleVvTEPBZMJhyKP2lH4BIbu+AXTUSIMZ275SctxMgO6vj47luXrnlDoD8kVvNtTmXQatvcQH5wQogbouAeO0U74Zb0QcQEDsJ8UJArKxPuOMkOiAHeIAsr3anuU6APMu1PZVuQFZxLUhGvtlHQKZFW5VdWEDrv/0BRPT4PR7Rlhc4s+jOZrPohEjZPwGQ6vMuVT3qAEhJVr5XaPEOfv+ebIj6ggUIZchdjQCIyyIgdqbMYcXgwydPHkqDZ0FszXAhMiMXb9xJZfsBSKfkvB0BeZfZzHShzc13Ox18kMw6+Bo8W+Ot8W8iE/mfQf/GtSAzCQH5UdW4m7OACADEb5+iS8Frk5PXatmBA0T0R+27apGdvHfnGiIg4MvcQhy52QPl7wqbBIUBCAVFtH0petfBglSSReoEpZORxYiuDx8xAKGSSWJupjwhoCog1TgrVl2M2thVlpjJkZE70qkD5N7XI/fQAAHflVJc4Dxqs0+UI6slKklRlgEhCKoLEUQXgLTs0ASR3lxcjIyNgR+oyBgOIFSyVC0SD8tB5IRr/omslEJef5eyS0ZAepK8xgzI11/fG2RAwNX3Ki1i/UaqgEwiAcIBPNz5+PTSNKLExPtHezKYZVHWAeks2Mszn60AAuxPem8RUBHR+MADhErKyfeztEUlWKmG2Fd0QMAvNhjvhYJsva8MPiAw3WeQ6YWCTOOq0QHh3DXOQ1tWMFLFsSBd8bH1wQIgwPIUiwdgeqXzgQUI4GOPxlEii0iIARC/30v3Rr6of1gAAeJ7dNVlv98qIICPbMLq/3cWDqgz1XXKNkBUK/ABfYoFwVLcDwMfOIBQ6+ligsYJbNO8JFmdYrHlwN8v9UAPLvnD7LBMsaJM6OUvvdFLnrE+xaqFcdodML5XSFI2AaJagTF0QBT3Y8zgfih84FiQTPUaLfpwxE+gmRCDBWHoty9+fvHiZ2y9+IUODs0UC171qx5o+cVbmrE8xZLyPFazi/T7E1L0YgMCezkBrAA6INDwbJncD5UPjFWspPwvehpvk0MwZdUHYenSag5f47lXm42uMviAsDRojtw4tnLLb2nWMiA1MoTV7D46Lq/bAohuBVABgYZnrxUfi3iA+HB2doRDOICAP2xuHB+R5b1hA2Qu9xxbq1t4gGDt6AnTgj2AKO65skiLCIhieJrc8zGFlsWxd1+sT7Eu0h4sW+sVLE+xYFcZz2WwtVm4PGSA9OaqH82yGFOssDiNoSj9T1umWI1FWjjuowBSNzwRo/uh8nFAWAaEgg/b6lmQrCjotuqkR6Ogq8w9z1C4Sso/DBsgvbjqQgQDEHDRQdJ6qwdcs48KNgCizpIUK7AYQQkUnuh+RBb30r9btyCgc12e9cXv3nVZi0AwLOqjOjYAkhk+QHJ/MiDwubUgG7QUhoK7jHyz12SK6PUqFkXpsyQ47ncPCAAr3dL9GAN8UEnrgIAzywf5RCLh83huIcnjgdXL4guoD6a3AoTA05ACgnnVmBbELXECwzBR9Jo75USinH8kF4lex0GU6HlEWaSF436xa0Dgf0gddz+ge764BTNM4ABCrRcKew8epNAz+t++PZGFQRDuDJDhA0R5Sp7L5qWN1AZKReCNDffNSGSrIBM932qiu+fquN+1BamD1ex+AD4imTScJr37grVZkSrIqzcf/+06kq6uSTVJ4twcZ6sFoRTDe9oAoYgkQdkLiLKZV3JvXJ2/Pg9+un6tzReqhRJ18t9nFRCje764qYz73QHSACvSwj1Pw+6DAYj6WXKzcLm2dg5F3154Y61IBhog4FBx/dQBAvpKiepECKYPoiorXfgWqd3PvZlPJzMZgug1IKoXobnnGSXzVneAHN+cqLvnRXUeiAFIMgOGAqpIyJdT8xeQtPZ9llOth41TLHDxhUyhEyFOAwT0lcKB3IkQDEDUZlNyJKWuryFp/txaqZROF4lMspc+CNxjSOnuuTLudwVIq82JBvdc+RstT7GA7SlVq3IBqDrz+Oo8kq7Pq+XLaoheCAog4ED1wexeNUmdJkBAq1Yn6QdVoj0h1gEB36qlUorPmd1Amzic+z975/ebRnbF8ZX6sOp/0FfM2pgfsSeEYcA0YSVwI8Ausdgdr2N+OMiW1QnNRt6SKFAsUiOsGClGinClWrGtvKTZSHlIq7i7VqVtlT+sc+cHDDDD3F+TMJQvfkjQ+JrL3M8958ycc2bxq7+cZFOOWqdVrtPLxdJEEb19H9KCqMmJPr3wnJGXOR4goBKkmbjIyDdG0bvSJEUFM/7KKhIhCIAAPr5mC0EzQiYLEMBHgg2ZEoINCKgEKUaXC0RJ3OHGSaume1owANGWOHX3fUhAhpMT5TDG1+zyIR6Dk2rCpDrZdxSSrgtOpKopeEBkPrzRoBkhEwUI4CPPZhYyZoTgAhKZbVd4Gtn2zx0dvdOCDkj3Jp9234cDRCf8kMPzJUeXD3Hwy3+jA8LUy4fiJpJMFmQR1AZ4UTpfQgOi8OEWFkRCOqMImSRAFD54gTcjBBMQUAkinjMS+1EQz3oBVJPonhZkQLSXr7r7PhwgWf3wQwxjVDdNqSxBtyCif1Vl2eWkpIL0whbrXqXvYnX54E0JmSBAenyYEoLtYrU9LGEfR/m0i8Nka8OfDxEQ3fBc/ipMAfkvszQ6PFcqS7DS3VOthlwJElJfIS/ey+tdLsEnLEIC0uODB4TsjyJkcgABs1b5MCMEDxDRgMyTVYJ45UUj/vBsQydhEQ0QbQlgb9+X3zcDZO5waSj8kPjohueMWlmCDIhoQJostR6gy3ybsgUBO6nCh6AQ0qobue0TA4i436l8CDIh37QMr/biulgVL73zzuaG2/QiAaItAdSE5/L7ZjXpsaXh8GMwPM/JlSXogORa30uVUh4KL7XzJVUXq/y9woegEPLSsGXyBLlY5bTKh0JIvmx4vwEPkMquxAeV8y4C3Bm6OIoCiCY892nDc/l9s3T3mNTzakR43qssQXexcqKHlaHWGzZYog0Ikw2wYZkPsFSEMHtkuFQmCZAjNqoBxM2+KzvoAtJep9c8XGBvtnIEFsQoPFdyc80BMQ/PlcoSdEBSrYcAECobiQWAMI5a1s9GFQsCVsrjB/X65LtY2dY71t11sXg28YrJ0XWxFEConHhCQDQ3wXv7fi83FwqQEeE5I6eugGvHuf9gWJAEm/HQ7L5P2YLUy+WSTIjER+P9g7P6xFsQ8azuXZMJkfhIn+/dZyxxsaiIyMUaFZ43pfeRAOkPz3vwgZTeJvqddCZVPmHpdd/3VqjfB2FyNx7cVggBfOzdu8FMvovF5MrnMwohov04v3ePNiBikE5vX2Sb2EG6cXjOKLm5PpgYxDg878HHVLFSTUjbNWgUXKF+mVecZFMlROFj8l0sadY1hRCFj1SdoXyZdyVI6bRnCC7zGofnvdJABEBkN62uzS7xqZVX1SpOLpZoQg5ZLwgIieXORNvwdYXQ90EYlRCFD0du8i0IaHouE+Lm2bzKB1ULMltph3kqT5oI7PNV3BuFBuG5tjQQAZCh8NzRgw8YJ6xkRdDqICn4/S4nqQLOiAWpJl1CwgofYKVMvoulEiJo+KDrYs1WIk4uTnrS7/qd++FDvUoEqO7u2vC83sdHU83NhQdENzzXGie8bF5Qje4veHZA8+d4AEfSb3Fh16wlyYoKISW28Wo0H5PlYqmEmPFBkKxYmV3hwlyAQJzbm0wepcrYyYrZum54zmhKA6EBUcNzTXaJevlKMU64gKQ6tW9WF/b3BewnV4hfs38X7dHkKNm8gJAb6QcmfExYNi8gpPzgH+KsR/JBlO7eLq47CVrMu3nn7s2TDn66u0F43teZBBaQgfBcm9qlGifcehAmVe106ocnr19v4ulppFixsGBKIuRMtB/3R/IxafUg4lRz2Vcm9oOwYAr0EyhuLq5habH9XbncKjuwC6a04TmjE374EACRSUhps0vUxihd44Rdcgt6A2Rrra2nv3+0vf0I+bX9SC66Je6L5RhFSG1vtP2YvIpCQAizZ8IHecnt7GvEcltVi08d5VQKv+TWKDxv9pUGLkHeSR8Mz3Uqr8i6muTKt1YR6y7VkTeL6EXpqDXpTK5WzY1cKZNXky7ZEGY0H0RNG6RtrYh92h9VGYdh2wYzQP71pusBpTR8MIOdSSBvFA6G5zrGicSCSD1eb7UXcb6otcXN3VlrAZEIMdlJJ7GriTjhusNk1iQWhAyQtTWmmnJgW5ATvfB8qDGidJn3wAyQgfB8oHGQ+gHxmzZkO61Way/x8w+/Q9cP4mu1vdpuVyxr2qAQYrJSJrEvFuMwnTVBDBKJVNrieVvDOe1AT5utTqtTY3BikINfLgc9IL3GiOBfMOnuGjet79pxTsMHvgWpOhqNxuOGf2UeT+vSBWIrLYhMiOP/qqvJJ+isWAlkeF4Ih6NhLGWcF6Xd+Il+/YE5IDrheXOgM4m0yiGCdE14rhRHqdkl2u0FFxBQNCXVGGMX2waDy8FlUkAcpMp1bPf4g7NmilQ5AkDafNDjWcZWUKpof1nGBWQgPB8OP+RV/sYUENlN6y+O0jYOIgYkFwwJmQxJ6WUo5I3gAhJmz8SlwmRJxbS+sxEgHFt7v3cjW66RqvWygPsItvaCx0vyeClRAj4gA+G5XvghuWCmgGjD84G+vv21HfiAFJZDhLmdnhA2IBz75PzVvVS2SqraUdBGgBRm9u6dnRwSq/lsHx8Q8px3fEB6+75++KG0/2FMmzYcGmeXOCgBkqSQ+owLyELUu1zavcsvLLjJFBWC6q19OzwG2l3wCJ4CuZL73Vl/BkC8+ICcjAo/NEG2eVeT6nBxVF/jICoWJPTZLIj48ux7vBlSeQVxKNtYkOgCx2fo5NN2Z40MiFv0HDyEDynEBUQbnhuFH9UqfHd3o9RHGoA0k58TEHFZcxwXJl4nUTCSbSwIgJmSukMiAxINEXf+AQ9Kx+3Naxp+SAjBdnfXr0ykA8i3cT9p4vMK7jMKrZAdXCwLZo16o7Did60QiivVqkTd3Q3Dj66TBAWIUWUiLUCcLkI556eA2A6QiN9JWAfk35nPEgEyOvyA7u7eVxx1qM8HmQUh/KJcUwsyBQS75FYn/DjpXuGCtCD6fX2ngOivlLEGxDqJgGzYzIIo4Ue/pKu73ZEgAEmB8Fz+VV8ua9BZMGUzQMAVnLBF4vixBcRCPjj3woaNLAi4dSWHHwPyLeVqmttbpoBU34D27peXS5eXvpM3tTdGd5KrdgIkUvQKghCySN5gOD0zhoBEIrwgZEIeaxRKcrZxsQ6Oq1KizKXvcgiQl6mqNpmmapLNO3eYO/T94YnvifjzMpVqGitnI0BmK/NO592L5xeW6Pnuw3EEJCIazvX1+WdHzyzR5rPH6Rl7ADIX+/hC1k+K5P+80NNcP1n9gIhvvbi6ulIOvRqtX2JzNgEEFES3K+1EPmGRxJUyjhYETDuSzls1760Zu1iQLiAQGg1ILPYT9Ej2AURaWcXizMzNGUsEhh1DQORp37l20yKBqW/ZxIJcQS/rAxNAoAe6+mgfQMSlIp7Gaxsz16zTGAIC5l2cSW9YqIRNLMhP0DIBZA5vpHEHREJkI71lodLt8QTk8cxNC7VhC0BERI4hXzHttq+X7g6OglHsGJBpJ0Bm2xUr1Uaqk/9kgIiupaWCnvVndbHmYNXHh64FUXRg9jP0Z8ccELCZWrxUUNbvJwIE51cs+gv2AKT/4BGAII5kCxfLao2lBRmbWX9OQHClc5kXX+NuQcZLn8qCjNGMp4BMAZkCMgVkCsgUELsAEiOTFpAY8VhTQKaAjBkgpEYk1gOEeKjYFJApIGMGSGyOyDWSLFAXkAMyQMQRpoBMARkzC3JwSqYfD7qAHByTDQUYmwIyBcR6QAxq0h215iAgc3OnpDo+UAChMRQsIA5LALHf0kEHpGT3PeE6aasO146/msrpqVk9bGubwR99dRA7JVfs4/Hbt29jHykMdfwx9rcjbbv6yt/3zm5kmzpTafKkgDjjwxYkYi9VKnFEQL4sWpsqQz/3ZkCrK37Cpibz3G7LSLU1bSv47d+efqCh09MPf/1Aaagf/7ytfU7B6/vn78/3OjpTKXPE7V9ct1f7v/xKxW6AtO8iAvIr7vY6XPv79fn1efpCHfW2a+CptnfJi5v5QD6fyOsokU+v7/ZU3G3/c/xUFD9X7yOuJP74p691ZiNORVgg/qYCK36tnBclp99eWskgAfLFl+4orN0lftwylWFd/GAjxZCXuLh5nzVUsK8XfJIdP/V/wqDxgR7yLyo0UB694gw447CSzjZ1IY56vfAbJEC+CHi4HShxTlc8vENZUU70i7ko/PE7HE/e33VYbqPeMm5Be5jAf0tHtMYBQ/V9wowgdZzRm4+b+rfGL1/M7kA/dj0OQqB4gLLiEh/wh8f5XyMG6c8eQmn7KBCfbzykLlfchXR8o7ScmWo8JAQv8ndgS3zubD3nuIdbd+gWDt3Z2uS4VZRRG6iAbCTSMMrPcFwpn6asRMLPXU8nEH7j1vOkd6qxUMibLOU3YCv//tfeGby2jURxuGxb2kKPC7uFnjRZlKRIoWLasXaRq4Nao2BFDpUdKQF1CBkMwUKGQo1zKKTk4hxM/oTc+m+uknYva3v7JhrtWqv3XQrueLA77+vY1tNvkvSK2WPfUHs/YZJe2uIL/FVwLi3IBHZ/PJ8w2gkV333vGIZOiWbAp3X84LSCD7LInT7+D+a+A1+5eSGI8gryC0EC+KvQHkgL0ktAE/NeIYivOpciSSxKjAQ83tD8I9HVLWQN0LvsSqIivgmiuoK+CQIvoJoJYiS6lCDF/xizLYsga4Eu5ijIOgqiY22uBZaNgqAgCAqCgiAoCAqCoCAoCIKCoCBYmygICoKCoCAoCAqCgqAgKAgKUmdBIKcwaOGtIKoPd7hpNdENDn+ChoKs0ZV0+8zX4Ct3dtOsqPiokL8EAT9BXpAJrK3YmDB6wNUfllPsIM6ykxR6Kwhnoqsja0Gxg/BV67S4oOEftqii3d22gxA+qzaWb3cHdZuniV1RuztZ9gJWHM+W+vkldvOuTzdvkKcrWFy7diDERVv1gX3tsRAziVlTR1aQ3I1+jBtluWDDOFKKG7muxXS3+PPvf+PmK8guWBW3xiN3yROgR9mqdVqsqunM7CeKKyiK4km/P55K1FwqK0iag4hSk42yXDk6I0sfP1/FxgmyNuysWKSv+4srGs9E31FeQdlFv38ZSzzBlxTkoRuDmEY2u57Gyukya9nD2c7GznI2kDVixSLt7y2u6PTSFOE0U1s+2dQpdpDfJWbNn8iFNvw8Bx5g/oV63SP156ITjyx9HGuv1uzPFwgOPHp8NVfM1ZB6owA8/Gw+kxHk0b37r4TYgtAXuk7MLSA3cRuwWYlOxOLQAdv7+A6pLR93thYjaTxdp0I5VHLWXTlBnp7aDIgwBXQoI5ZFgbOKZbMKr9PFL8H1pTv0FuvKFja4goqyJ7CRdjEtgyNsye8gT4/UR/mMLzY9b3xSZoaTF6+33yI1Zft162JyUYLJEaPz3kUFTKqK/ZEi7TBqpKWuj7xpDTB4qr60DJ/fffl5emKzIOVhBVQU+yNHuElZLymT8MIH2+8xeaquvH/R6vESy++EY9uWiBSSoLJmRVlBaI+XaWJEQeqdKdcqtfxaIYhUpNAadPPK7yCl/oX8wMR0nxpjlxbERkH+4W3cdLVjT2KNYShIpTsI5sPhDoKCoCD/2xtFdBQEBUFQEBQEQUFQEAQFQUEQFAQFQVAQFARBQf5VQQzl+JuUOlwrk+aCgtRckLDU8n9rNVFfmZXF/sjBix1kYpRIeOmFX1CQWgtSLH8J+Iaw52GvAhzZ2J+nRuorJz1gjJeZN2xf9lGQGgsiwrQEfnsiRJD7aQU4z+QEeZa6kXLiEWN5VmKCfDo+xV6sGiPaWakCSvrmbBpVgJvKCuJH6rN8skKQNmxedynRdPyZMqS2vMjjJasKLyCnvzWL8wqIfClBHt57lquP8omnQ0YjWEaQv/y493Q8PEPqy7EWLqxpksYZNMyHC/NSdUTQ99gfyR3k18P5b9eqmRPiXc9BQ7+ef12eD7eH1JiT/cUwufPgYARk2PFIdziqgM5QMhdr9zMzYQghTOhQjxBh/ni4MAf7JxgQ14hEuU87e8F7cDgPI4S+AQ69jcaB0t+VFOSXFjALmhCdgGOjaQFoIDtHE5qSJfcpoC8Pgdz8FgYbaRH90IJOe/iSjCR/5n0EvA6i9Sxq9TTll0ze4ceRxjBJlF/6KybsUksDT6w9mMheKHQ4iJDrTOchV0wYXAVIMzibhYlyOLfoYcLhw+VbTYBNLIZO9cJA1UewtXYxZ60haXIf7Aq6q24P8dPg/YSVNSsmt4Kobmw0QrN1ijFrjWCwfViVIPC6NGonyKCFpdMQ3qIgdxDk9C3GrDWE1x4KIi+IZ2JLSTOggw4KIv32+CbpWkgT6NIhCiIvSJfiqecN6YFnIxTkDoJ4KEhTBMEdBAVBUBAUBEFBUBAEBUFBEBQEBUHWSBDl3bzfBaku9geYi8WLF6InXHW7coiCNEkQ9TlXya0gvNJcLFCekBpkfeMAAADnSURBVOYQShxNdUqRgYI0BYuNeAU5V5ouU5eOdC7WkwQaKGQxq4KYIrxQ2BxBjvMqgq4sRmSGa0+qycVy3UIQV3WGlpttoiBNEUTM4wpyroq61CN3DXKxIr14IcpjilwUpDmCXFeQdBVFxQ6SR/95LlYWZ13WzWK1UUVZPO0wFKQhX9LFfJopJ842i082MfwJsrlYj4PREEbxHofKub4NS0GaIAg5HHbUMyLEG43Aww+uZX/F+iBsGB7xbPWgH80xxDOrgFIqMVq8ui+Xi3XvOfiGDL2KuwR0NKQxO4j10xrw/PFSQf4EgNSAoMi6UpcAAAAASUVORK5CYII=;" vertex="1" parent="7">
                    <mxGeometry x="540" y="100" width="187.5" height="150" as="geometry"/>
                </mxCell>
                <mxCell id="16" value="Prices" style="rounded=1;whiteSpace=wrap;html=1;" vertex="1" parent="7">
                    <mxGeometry x="20" y="440" width="80" height="30" as="geometry"/>
                </mxCell>
                <mxCell id="8" value="&lt;font style=&quot;font-size: 24px;&quot;&gt;Museum prices for day depending on age, in JS&lt;/font&gt;" style="text;html=1;align=center;verticalAlign=middle;resizable=0;points=[];autosize=1;strokeColor=none;fillColor=none;" vertex="1" parent="1">
                    <mxGeometry x="145" y="73" width="530" height="40" as="geometry"/>
                </mxCell>
            </root>
        </mxGraphModel>
    </diagram>
</mxfile>